<svg width="26" height="26" viewBox="0 0 26 26" fill="none" xmlns="http://www.w3.org/2000/svg">
<path d="M15.8386 13.1039H13.1068M13.1068 13.1039H10.375M13.1068 13.1039V10.3721M13.1068 13.1039V15.8356" stroke="#1C274C" stroke-width="1.5" stroke-linecap="round"/>
<path d="M22.2119 13.106C22.2119 17.3985 22.2119 19.5449 20.8784 20.8784C19.5449 22.2119 17.3985 22.2119 13.106 22.2119C8.81337 22.2119 6.66707 22.2119 5.33354 20.8784C4 19.5449 4 17.3985 4 13.106C4 8.81337 4 6.66707 5.33354 5.33354C6.66707 4 8.81337 4 13.106 4C17.3985 4 19.5449 4 20.8784 5.33354C21.7651 6.22022 22.0622 7.46623 22.1617 9.46358" stroke="#1C274C" stroke-width="1.5" stroke-linecap="round"/>
</svg>
