<svg width="414" height="365" viewBox="0 0 414 365" fill="none" xmlns="http://www.w3.org/2000/svg">
<g clip-path="url(#clip0_3534_358)">
<path d="M265.875 329.575L264.859 315.443C258.205 312.115 250.84 310.463 243.402 310.63C253.866 318.72 253.028 334.889 260.274 345.955C262.56 349.389 265.59 352.264 269.139 354.368C272.687 356.471 276.663 357.749 280.773 358.107L289.48 363.118C290.477 356.532 290.034 349.809 288.182 343.411C286.33 337.013 283.114 331.093 278.755 326.058C276.281 323.257 273.465 320.78 270.373 318.684C268.469 324.15 265.875 329.575 265.875 329.575Z" fill="#F2F2F2"/>
<path d="M214.006 365H413.361C413.53 365 413.693 364.933 413.812 364.813C413.932 364.693 413.999 364.531 413.999 364.361C413.999 364.192 413.932 364.03 413.812 363.91C413.693 363.79 413.53 363.723 413.361 363.723H214.006C213.836 363.723 213.674 363.79 213.554 363.91C213.434 364.03 213.367 364.192 213.367 364.361C213.367 364.531 213.434 364.693 213.554 364.813C213.674 364.933 213.836 365 214.006 365Z" fill="#CCCCCC"/>
<path d="M87.0793 212.492V212.766H87.2698C87.2008 212.678 87.1372 212.587 87.0793 212.492ZM88.5455 96.5483C75.2384 113.859 68.0354 135.09 68.0606 156.927C68.0636 160.253 68.2265 163.531 68.5492 166.763C68.5989 167.318 68.6568 167.873 68.7316 168.42C70.5805 184.49 76.3524 199.859 85.5387 213.171C85.8946 213.693 86.259 214.207 86.6238 214.721C90.5784 220.267 95.0931 225.391 100.096 230.012C140.375 267.217 203.179 264.714 240.372 224.424C240.944 223.819 241.491 223.206 242.029 222.592C257.253 205.346 266.01 183.344 266.804 160.351C267.597 137.357 260.376 114.803 246.378 96.5483C245.955 95.9931 245.525 95.438 245.077 94.8911C244.097 93.6565 243.081 92.4468 242.029 91.2619C241.491 90.6487 240.944 90.0356 240.372 89.4307C231.086 79.356 219.812 71.3166 207.263 65.8202C194.714 60.3238 181.161 57.4898 167.462 57.4971C166.509 57.4971 165.565 57.5137 164.62 57.5385C163.991 57.5551 163.361 57.5799 162.732 57.6131C148.631 58.2827 134.835 61.9543 122.266 68.3828C109.697 74.8113 98.6444 83.8486 89.8458 94.8911C89.3985 95.438 88.9682 95.9931 88.5455 96.5483ZM87.2698 212.766C87.2008 212.678 87.1372 212.587 87.0793 212.492V212.766H87.2698Z" fill="white"/>
<path d="M86.384 211.473L86.6655 210.902L107.755 168.42V168.412L108.575 166.763V166.755L143.415 96.5488V96.5405L144.235 94.8916L144.243 94.8834L161.887 59.3122L162.732 57.6136C163.362 57.5805 163.991 57.5556 164.621 57.5391L163.784 59.2294L146.091 94.8834V94.8916L145.271 96.5405V96.5488L109.519 168.586L109.511 168.594L88.4217 211.109L87.5933 212.766L87.4607 213.039L86.6242 214.721C86.2594 214.208 85.895 213.694 85.5391 213.172L86.384 211.473Z" fill="#3F3D56"/>
<path d="M109.163 166.763V168.42H68.7312C68.6564 167.873 68.5986 167.318 68.5488 166.763H109.163Z" fill="#3F3D56"/>
<path d="M171.996 179.689V178.032H212.428C212.502 178.579 212.56 179.134 212.61 179.689H171.996Z" fill="#3F3D56"/>
<path d="M205.812 173.916H207.469V214.359C206.922 214.434 206.367 214.492 205.812 214.542V173.916Z" fill="#3F3D56"/>
<path d="M246.377 96.5492C245.955 95.994 245.524 95.4389 245.077 94.892H242.028V91.2628C241.49 90.6497 240.943 90.0365 240.372 89.4316V94.892H89.8453C89.3979 95.4389 88.9676 95.994 88.5449 96.5492H240.372V224.425C240.943 223.82 241.49 223.207 242.029 222.593V96.5492H246.377Z" fill="#3F3D56"/>
<path d="M241.199 211.107H87.0762V212.765H241.199V211.107Z" fill="#3F3D56"/>
<path d="M87.0793 212.492V212.766H87.2698C87.2008 212.678 87.1372 212.587 87.0793 212.492ZM88.5455 96.5483C75.2384 113.859 68.0354 135.09 68.0606 156.927C68.0636 160.253 68.2265 163.531 68.5492 166.763C68.5989 167.318 68.6568 167.873 68.7316 168.42C70.5805 184.49 76.3524 199.859 85.5387 213.171C85.8946 213.693 86.259 214.207 86.6238 214.721C90.5784 220.267 95.0931 225.391 100.096 230.012C140.375 267.217 203.179 264.714 240.372 224.424C240.944 223.819 241.491 223.206 242.029 222.592C257.253 205.346 266.01 183.344 266.804 160.351C267.597 137.357 260.376 114.803 246.378 96.5483C245.955 95.9931 245.525 95.438 245.077 94.8911C244.097 93.6565 243.081 92.4468 242.029 91.2619C241.491 90.6487 240.944 90.0356 240.372 89.4307C231.086 79.356 219.812 71.3166 207.263 65.8202C194.714 60.3238 181.161 57.4898 167.462 57.4971C166.509 57.4971 165.565 57.5137 164.62 57.5385C163.991 57.5551 163.361 57.5799 162.732 57.6131C148.631 58.2827 134.835 61.9543 122.266 68.3828C109.697 74.8113 98.6444 83.8486 89.8458 94.8911C89.3985 95.438 88.9682 95.9931 88.5455 96.5483ZM70.3964 168.42C70.322 167.873 70.2641 167.318 70.2059 166.762C67.681 141.596 75.0024 116.43 90.6329 96.5482C91.0718 95.9931 91.511 95.4379 91.9665 94.8911C100.527 84.4459 111.161 75.8908 123.197 69.7667C135.232 63.6425 148.406 60.0825 161.887 59.3116C162.516 59.2785 163.146 59.2454 163.784 59.2288C165.001 59.1791 166.227 59.1542 167.462 59.1542C181.237 59.1461 194.857 62.0588 207.425 67.7003C219.992 73.3418 231.222 81.5839 240.372 91.8833C240.944 92.513 241.499 93.1428 242.029 93.7891C242.352 94.1536 242.658 94.5182 242.957 94.8911C243.412 95.4379 243.851 95.9931 244.29 96.5482C258.218 114.236 265.602 136.198 265.19 158.71C264.777 181.222 256.595 202.899 242.029 220.065C241.499 220.712 240.944 221.341 240.372 221.971C235.329 227.639 229.642 232.7 223.427 237.051C179.252 267.977 118.378 257.227 87.4603 213.039C87.3939 212.948 87.3277 212.857 87.2698 212.766C87.2008 212.678 87.1372 212.587 87.0793 212.492C86.8392 212.152 86.6072 211.813 86.3836 211.473C77.6825 198.611 72.1995 183.845 70.3964 168.42ZM87.2698 212.766C87.2008 212.678 87.1372 212.587 87.0793 212.492V212.766H87.2698Z" fill="#CCCCCC"/>
<path d="M281.943 263.723H182.773C181.56 263.721 180.398 263.239 179.54 262.381C178.683 261.523 178.201 260.361 178.199 259.148V210.812C178.201 209.599 178.683 208.436 179.54 207.579C180.398 206.721 181.56 206.239 182.773 206.237H281.943C283.156 206.239 284.318 206.721 285.176 207.579C286.033 208.436 286.515 209.599 286.517 210.812V259.148C286.515 260.361 286.033 261.523 285.176 262.381C284.318 263.239 283.156 263.721 281.943 263.723Z" fill="#CACACA"/>
<path d="M238.26 259.834C216.541 259.834 193.894 259.626 185.444 259.492C184.333 259.469 183.274 259.012 182.494 258.219C181.715 257.426 181.276 256.359 181.271 255.247V210.816C181.272 210.418 181.43 210.036 181.711 209.754C181.992 209.472 182.374 209.313 182.772 209.312H281.94C282.338 209.312 282.719 209.47 283.001 209.751C283.283 210.033 283.442 210.414 283.444 210.812V240.958C283.425 245.878 281.479 250.596 278.023 254.098C274.568 257.6 269.877 259.608 264.959 259.691C257.083 259.794 247.758 259.834 238.26 259.834Z" fill="#E4E4E4"/>
<path d="M271.703 237.087H191.013C190.489 237.086 189.979 236.924 189.552 236.622C189.124 236.32 188.8 235.894 188.624 235.401L179.491 209.772C179.355 209.389 179.312 208.98 179.367 208.577C179.422 208.175 179.573 207.791 179.806 207.459C180.04 207.127 180.35 206.856 180.71 206.669C181.071 206.482 181.47 206.384 181.876 206.383L282.741 206.242H282.744C283.164 206.242 283.577 206.346 283.947 206.545C284.316 206.744 284.631 207.032 284.862 207.383C285.093 207.733 285.233 208.135 285.27 208.554C285.308 208.972 285.241 209.393 285.075 209.779L274.034 235.549C273.839 236.006 273.514 236.395 273.1 236.668C272.685 236.941 272.199 237.087 271.703 237.087Z" fill="#CACACA"/>
<path d="M214.402 254.85H186.577C185.892 254.849 185.236 254.576 184.752 254.092C184.268 253.607 183.996 252.95 183.996 252.264C183.996 251.579 184.268 250.922 184.752 250.437C185.236 249.953 185.892 249.68 186.577 249.679H214.402C215.087 249.68 215.743 249.953 216.227 250.437C216.711 250.922 216.983 251.579 216.983 252.264C216.983 252.95 216.711 253.607 216.227 254.092C215.743 254.576 215.087 254.849 214.402 254.85Z" fill="#CACACA"/>
<path d="M232.207 243.407C235.697 243.407 238.526 240.578 238.526 237.087C238.526 233.596 235.697 230.767 232.207 230.767C228.718 230.767 225.889 233.596 225.889 237.087C225.889 240.578 228.718 243.407 232.207 243.407Z" fill="#3F3D56"/>
<path d="M31.9409 13.0692C47.4662 2.13258 66.699 -2.18695 85.4082 1.06091C104.117 4.30878 120.77 14.858 131.704 30.3878C154.472 62.7271 177.317 147.529 161.191 196.655C113.088 145.831 39.1889 140.549 14.6274 112.861C-11.6175 83.2758 -0.388871 35.8437 31.9409 13.0692Z" fill="#4FBF8B"/>
<path d="M74.1394 86.2992C87.0354 86.2992 97.4897 75.8419 97.4897 62.9421C97.4897 50.0423 87.0354 39.585 74.1394 39.585C61.2434 39.585 50.7891 50.0423 50.7891 62.9421C50.7891 75.8419 61.2434 86.2992 74.1394 86.2992Z" fill="white"/>
<path d="M180.929 222.092C189.375 222.092 196.223 215.243 196.223 206.794C196.223 198.344 189.375 191.495 180.929 191.495C172.482 191.495 165.635 198.344 165.635 206.794C165.635 215.243 172.482 222.092 180.929 222.092Z" fill="#4FBF8B"/>
<path opacity="0.2" d="M49.1563 57.5528C47.6101 60.2016 46.6007 63.129 46.1856 66.168C45.7705 69.2071 45.9579 72.2981 46.7371 75.2647C47.5162 78.2312 48.8719 81.0152 50.7267 83.4577C52.5815 85.9002 54.899 87.9534 57.547 89.5C60.195 91.0466 63.1217 92.0563 66.1598 92.4715C69.1979 92.8867 72.288 92.6992 75.2538 91.9198C78.2195 91.1405 81.0027 89.7844 83.4444 87.9291C85.8862 86.0738 87.9388 83.7555 89.4849 81.1068C85.317 84.7642 79.9839 86.8186 74.4401 86.9022C68.8963 86.9858 63.5038 85.0931 59.2276 81.563C54.9514 78.0328 52.0707 73.0956 51.1011 67.635C50.1316 62.1745 51.1364 56.547 53.9358 51.7598C52.0406 53.4202 50.4266 55.3765 49.1563 57.5528Z" fill="#231F20"/>
<path opacity="0.2" d="M14.583 112.972C39.1445 140.66 113.044 145.941 161.146 196.765C162.648 192.117 163.803 187.364 164.604 182.545C116.525 136.342 46.74 130.502 23.009 103.751C1.76951 79.8078 5.07578 44.1781 24.2443 19.3867C-2.04501 43.7631 -9.46786 85.8593 14.583 112.972Z" fill="#231F20"/>
<path d="M319.88 210.798L309.964 207.776C305.647 212.982 302.068 228.063 302.068 228.063L288.497 250.123C287.77 250.468 287.148 250.998 286.691 251.66C286.235 252.322 285.961 253.093 285.897 253.895C285.833 254.696 285.982 255.5 286.327 256.227C286.673 256.953 287.204 257.575 287.866 258.031C288.529 258.486 289.299 258.759 290.101 258.822C290.902 258.885 291.706 258.736 292.432 258.389C293.157 258.043 293.779 257.511 294.233 256.848C294.688 256.185 294.96 255.413 295.022 254.611L315.562 229.668L319.88 210.798Z" fill="#FFB6B6"/>
<path d="M319.69 213.205L321.522 198.19L317.415 191.328C316.603 189.984 315.432 188.893 314.034 188.18C312.636 187.466 311.066 187.158 309.501 187.291C307.382 187.484 305.416 188.475 303.999 190.064C302.583 191.653 301.822 193.72 301.871 195.848C302.025 202.301 303.042 210.462 307.008 212.693L307.049 212.715L319.69 213.205Z" fill="#4FBF8B"/>
<path d="M347.703 348.884L341.757 351.754L327.855 330.178L336.632 325.94L347.703 348.884Z" fill="#FFB6B6"/>
<path d="M350.906 354.987L332.62 363.816L332.508 363.585C331.597 361.696 331.473 359.524 332.164 357.544C332.854 355.564 334.302 353.94 336.19 353.029L338.307 348.881L345.762 348.407L347.359 347.636L350.906 354.987Z" fill="#2F2E41"/>
<path d="M303.439 356.926L296.837 356.925L293.695 331.449L303.441 331.45L303.439 356.926Z" fill="#FFB6B6"/>
<path d="M303.672 363.816L283.367 363.816V363.559C283.367 361.462 284.2 359.452 285.682 357.969C287.164 356.487 289.174 355.654 291.27 355.653H291.271L294.98 352.839L301.9 355.654L303.672 355.654L303.672 363.816Z" fill="#2F2E41"/>
<path d="M296.897 238.772L289.33 290.965L291.39 297.832L288.688 302.696L292.656 339.304L291.045 342.852L295.545 345.628H304.703L305.189 306.957L307.451 301.28V298.151L312.055 274.57L313.118 311.279L314.588 314.115C320.064 326.543 327.441 330.613 332.656 339.902L341.814 334.941L341.622 331.24C343.462 330.308 338.86 327.585 338.417 325.57L337.616 321.963L332.274 310.894L332.071 306.996L333.533 280.484L332.845 244.781L320.832 235.593L296.897 238.772Z" fill="#2F2E41"/>
<path d="M308.784 175.465C315.355 175.465 320.682 170.137 320.682 163.564C320.682 156.991 315.355 151.663 308.784 151.663C302.213 151.663 296.887 156.991 296.887 163.564C296.887 170.137 302.213 175.465 308.784 175.465Z" fill="#FFB6B6"/>
<path d="M291.205 261.287L291.031 261.227L293.334 253.74C293.032 252.776 292.974 251.751 293.166 250.759C293.358 249.766 293.794 248.837 294.434 248.055C294.061 247.41 292.526 244.365 295.026 241.778C294.877 241.023 294.125 236.558 296.749 234.375C296.749 234.375 301.84 195.774 304.696 185.578C304.779 184.832 304.11 178.741 307.951 178.503C309.977 178.377 313.017 178.184 317.579 177.89C318.169 177.848 318.514 178.843 319.037 180.464C319.392 181.56 317.569 183.058 318.01 183.033L318.041 183.031L318.071 183.039C322.327 184.18 326.061 186.753 328.644 190.324C331.227 193.895 332.502 198.246 332.255 202.647L330.899 225.712C331.104 226.64 335.424 252.942 334.295 255.765C333.654 257.367 334.746 258.365 335.544 259.093C335.955 259.468 336.251 259.739 336.21 260.036C336.193 260.118 336.157 260.194 336.103 260.257C336.049 260.321 335.98 260.369 335.902 260.399C335.181 260.76 335.579 263.235 336.001 264.71L336.043 264.86L335.904 264.932C335.743 265.015 322.832 259.091 307.148 259.091C301.236 259.091 297.818 263.595 291.205 261.287Z" fill="#4FBF8B"/>
<path d="M318.213 170.881C318.09 170.818 317.981 170.729 317.894 170.62C317.807 170.512 317.743 170.387 317.708 170.252L317.538 169.561L318.06 170.105C318.339 169.874 318.552 169.573 318.678 169.233C318.804 168.894 318.838 168.527 318.777 168.17C318.716 167.813 318.561 167.478 318.33 167.2C318.098 166.921 317.797 166.709 317.457 166.584C317.228 166.507 316.992 166.45 316.753 166.413C316.503 166.373 316.257 166.313 316.016 166.235C315.453 165.991 314.968 165.598 314.612 165.099C314.257 164.599 314.045 164.011 313.999 163.4C313.922 162.321 314.042 161.237 314.352 160.201C309.102 161.008 303.749 160.847 298.557 159.726C297.757 159.558 296.991 159.256 296.29 158.835C295.008 158.074 293.941 157 293.188 155.713C293.089 155.539 293.048 155.338 293.071 155.139C293.093 154.941 293.179 154.755 293.315 154.608C293.41 154.506 293.525 154.424 293.652 154.368C293.78 154.312 293.918 154.282 294.057 154.282L293.867 153.767C293.807 153.606 293.792 153.432 293.821 153.264C293.851 153.095 293.925 152.937 294.035 152.806C294.146 152.675 294.289 152.575 294.45 152.518C294.612 152.46 294.785 152.446 294.954 152.478L295.627 152.604L295.562 152.156C295.538 151.99 295.558 151.819 295.62 151.662C295.681 151.506 295.783 151.368 295.914 151.262C296.045 151.156 296.202 151.087 296.368 151.06C296.535 151.033 296.705 151.051 296.863 151.11C297.007 151.164 297.162 151.187 297.316 151.176C297.47 151.164 297.619 151.12 297.755 151.046C297.89 150.971 298.007 150.868 298.099 150.744C298.19 150.619 298.254 150.477 298.285 150.325L298.516 149.2L298.54 149.141C299.679 147.242 301.868 145.862 304.544 145.355C306.932 144.902 309.369 145.131 311.727 145.352C312.726 145.372 313.708 145.62 314.598 146.077C315.001 146.309 315.331 146.649 315.552 147.058C315.773 147.467 315.876 147.93 315.85 148.394C318.171 147.68 320.662 149.103 321.893 150.895C323.358 153.027 323.594 155.701 323.637 157.792C323.738 162.736 322.72 166.78 320.611 169.814C320.309 170.329 319.852 170.736 319.305 170.975C319.166 171.022 319.02 171.045 318.873 171.045C318.643 171.046 318.416 170.99 318.213 170.881Z" fill="#2F2E41"/>
<path d="M318.642 217.741L309.909 212.154C304.348 216.002 296.833 229.556 296.833 229.556L277.812 247.133C277.02 247.269 276.277 247.612 275.659 248.126C275.041 248.64 274.57 249.309 274.292 250.063C274.014 250.818 273.94 251.632 274.077 252.425C274.214 253.217 274.557 253.96 275.072 254.577C275.587 255.195 276.255 255.666 277.01 255.943C277.765 256.22 278.579 256.293 279.371 256.155C280.163 256.017 280.905 255.673 281.522 255.157C282.138 254.642 282.609 253.972 282.885 253.217L309.393 234.745L318.642 217.741Z" fill="#FFB6B6"/>
<path d="M317.808 220.008L323.625 206.044L321.521 198.328C321.103 196.815 320.269 195.448 319.115 194.384C317.961 193.32 316.533 192.599 314.991 192.304C312.898 191.918 310.737 192.342 308.945 193.489C307.152 194.636 305.862 196.421 305.335 198.484C303.742 204.739 302.519 212.872 305.736 216.09L305.769 216.123L317.808 220.008Z" fill="#4FBF8B"/>
</g>
<defs>
<clipPath id="clip0_3534_358">
<rect width="414" height="365" fill="white"/>
</clipPath>
</defs>
</svg>
