<svg width="73" height="73" viewBox="0 0 73 73" fill="none" xmlns="http://www.w3.org/2000/svg">
<g clip-path="url(#clip0_3541_1472)">
<path d="M68.5 0.5H4.5C2.29086 0.5 0.5 2.29086 0.5 4.5V68.5C0.5 70.7091 2.29086 72.5 4.5 72.5H68.5C70.7091 72.5 72.5 70.7091 72.5 68.5V4.5C72.5 2.29086 70.7091 0.5 68.5 0.5Z" fill="#4FBF8B" fill-opacity="0.1" stroke="#4FBF8B" stroke-opacity="0.3"/>
<path d="M55.5067 17.3581C55.5337 17.366 55.5606 17.374 55.5884 17.3822C55.9494 17.4896 56.2876 17.636 56.6233 17.8047C56.657 17.8216 56.6907 17.8385 56.7254 17.8559C56.8382 17.9128 56.9506 17.9703 57.063 18.0281C57.0986 18.0462 57.1341 18.0643 57.1707 18.0829C57.4675 18.2373 57.7338 18.4226 58.0006 18.6236C57.9799 18.8561 57.9063 19.0512 57.8168 19.2657C57.8018 19.3017 57.7869 19.3376 57.7715 19.3746C56.9361 21.3486 55.4255 22.8502 53.4967 23.7603C53.4669 23.7746 53.4371 23.7889 53.4064 23.8036C53.3256 23.841 53.2441 23.8754 53.1617 23.9092C53.1221 23.9259 53.0826 23.9426 53.0419 23.9598C52.5873 24.1451 52.115 24.255 51.6356 24.3558C51.6045 24.3626 51.5734 24.3694 51.5414 24.3764C49.481 24.809 47.396 24.2501 45.6056 23.2392C45.615 23.274 45.6245 23.3087 45.6342 23.3446C45.8723 24.242 45.954 25.1776 45.9406 26.1053C45.973 26.1052 46.0055 26.1051 46.0389 26.1049C47.8172 26.1017 49.4828 26.2395 51.1889 26.7753C51.2255 26.7865 51.262 26.7977 51.2997 26.8093C51.7456 26.9467 52.1566 27.1104 52.5661 27.3336C52.621 27.3627 52.6759 27.3918 52.7309 27.4208C53.3014 27.7264 53.8121 28.0816 54.2954 28.5116C54.3541 28.5631 54.4138 28.6132 54.4739 28.663C55.5635 29.5697 56.3585 31.05 56.735 32.3958C56.7513 32.4534 56.7513 32.4534 56.7679 32.5122C56.8989 32.9788 57.0246 33.4441 57.1072 33.9219C57.1139 33.9598 57.1206 33.9977 57.1274 34.0367C57.1852 34.3983 57.1932 34.7514 57.1929 35.1168C57.193 35.1812 57.1932 35.2455 57.1933 35.3099C57.1936 35.4443 57.1936 35.5788 57.1934 35.7132C57.1932 35.8488 57.1935 35.9843 57.1942 36.1199C57.1991 37.1095 57.1829 38.0857 56.963 39.0562C56.9533 39.1006 56.9437 39.145 56.9338 39.1907C56.9054 39.3205 56.8761 39.4501 56.8467 39.5797C56.8383 39.6174 56.8299 39.6551 56.8213 39.6939C56.7398 40.0609 56.6481 40.4176 56.5234 40.7725C56.4732 40.9187 56.4324 41.067 56.3914 41.216C56.3172 41.4853 56.2445 41.7454 56.1203 41.9966C56.0396 42.1633 55.9679 42.3336 55.8952 42.5039C55.8812 42.5365 55.8672 42.5691 55.8528 42.6027C55.7847 42.7615 55.7187 42.9208 55.656 43.0819C55.5848 43.261 55.5002 43.43 55.409 43.5997C55.3927 43.6301 55.3765 43.6605 55.3598 43.6919C55.3098 43.7853 55.2594 43.8786 55.2089 43.9719C55.1866 44.0134 55.1866 44.0134 55.1638 44.0557C54.7843 44.759 54.3706 45.443 53.9061 46.0935C53.887 46.1205 53.8678 46.1475 53.8481 46.1753C53.5798 46.5535 53.3025 46.9226 53.0128 47.2846C52.9865 47.3182 52.9601 47.3518 52.933 47.3864C52.7576 47.6092 52.5713 47.8199 52.38 48.0291C52.3226 48.0926 52.2652 48.1562 52.2079 48.2198C52.1828 48.2476 52.1578 48.2753 52.132 48.3039C52.0854 48.3561 52.0389 48.4085 51.9936 48.4619C51.7972 48.6919 51.5851 48.9054 51.3713 49.1191C51.3069 49.1837 51.2427 49.2485 51.1785 49.3134C51.1376 49.3545 51.0966 49.3955 51.0556 49.4365C51.0269 49.4657 51.0269 49.4657 50.9975 49.4954C50.8624 49.6296 50.8624 49.6296 50.7795 49.6296C50.7795 49.6542 50.7795 49.6788 50.7795 49.7041C50.6874 49.799 50.5837 49.8807 50.4817 49.9646C50.4529 49.9903 50.4529 49.9903 50.4235 50.0165C49.809 50.5207 48.7385 50.4639 48 50.3994C47.4147 50.336 46.8443 50.2265 46.2756 50.0763C46.2011 50.0571 46.1265 50.0383 46.0517 50.0203C46.0037 50.0083 45.9559 49.9951 45.9087 49.9804C45.7135 49.9257 45.5271 49.926 45.3258 49.9313C44.4204 49.9495 44.4204 49.9495 44.1663 49.791C44.0074 49.621 43.9283 49.4101 43.8406 49.1974C43.7357 48.9728 43.5923 48.773 43.4521 48.5691C43.4042 48.4991 43.3569 48.4286 43.3099 48.3579C43.0563 47.9771 42.7908 47.6052 42.5208 47.2358C42.4361 47.1199 42.3525 47.0033 42.2704 46.8855C42.0384 46.5528 41.7983 46.2277 41.5514 45.9059C41.3165 45.5996 41.0877 45.289 40.8594 44.9778C40.7306 44.8028 40.5996 44.6294 40.4689 44.4558C40.3921 44.3534 40.3154 44.2511 40.2386 44.1487C40.2024 44.1004 40.1662 44.0521 40.13 44.0039C40.1123 43.9802 40.0945 43.9565 40.0762 43.9321C40.0401 43.8839 40.0038 43.8357 39.9676 43.7875C39.8296 43.6039 39.6931 43.4194 39.557 43.2344C39.5346 43.2039 39.5121 43.1734 39.489 43.142C39.3738 42.9857 39.2588 42.8293 39.1438 42.6729C38.8064 42.2141 38.4683 41.7559 38.1193 41.3058C37.993 41.1424 37.871 40.9767 37.7517 40.808C37.5868 40.5749 37.4148 40.3481 37.2394 40.1228C37.164 40.0258 37.0892 39.9283 37.0143 39.8309C36.9916 39.8015 36.9916 39.8015 36.9685 39.7715C36.8803 39.6568 36.7923 39.5419 36.7046 39.4269C36.351 38.9633 35.9929 38.5042 35.6243 38.0525C35.4911 37.889 35.3598 37.7242 35.2299 37.558C34.9665 37.2214 34.6949 36.8928 34.4156 36.5693C34.3087 36.4451 34.2049 36.3193 34.104 36.1901C33.9696 36.0197 33.8236 35.8623 33.6753 35.704C33.5616 35.5821 33.454 35.4577 33.3502 35.327C33.1538 35.0822 32.9362 34.8579 32.7201 34.6306C32.5806 34.4837 32.4444 34.3346 32.3116 34.1816C32.2459 34.1071 32.2459 34.1071 32.1706 34.0531C32.1056 34.0033 32.1056 34.0033 32.0195 33.8847C32.0294 33.5538 32.1327 33.2209 32.2166 32.902C32.2358 32.8289 32.2545 32.7557 32.2732 32.6825C32.4006 32.1885 32.5549 31.7099 32.771 31.2466C32.7887 31.2083 32.8065 31.17 32.8248 31.1305C33.1725 30.3938 33.6178 29.7129 34.1784 29.1203C34.2236 29.0685 34.2686 29.0166 34.3133 28.9644C34.5557 28.6877 34.8211 28.4558 35.109 28.2269C35.145 28.1973 35.1809 28.1677 35.218 28.1372C35.5561 27.8658 35.9212 27.6547 36.3001 27.4453C36.3491 27.4176 36.3982 27.39 36.4472 27.3624C36.9334 27.0922 37.4407 26.8912 37.9751 26.738C38.043 26.7176 38.1109 26.697 38.1788 26.6764C38.6401 26.5374 39.1008 26.4122 39.5756 26.3286C39.6082 26.3228 39.6407 26.317 39.6743 26.311C40.0787 26.2436 40.4864 26.2088 40.8947 26.1751C40.9347 26.1717 40.9747 26.1684 41.0159 26.1649C42.098 26.0774 43.181 26.0907 44.2656 26.1053C44.2634 26.0844 44.2612 26.0636 44.259 26.0421C44.249 25.9458 44.2391 25.8495 44.2293 25.7533C44.2258 25.7205 44.2224 25.6877 44.2188 25.6539C44.1979 25.4482 44.1844 25.244 44.1772 25.0375C44.1642 24.7676 44.113 24.5196 44.0436 24.2587C44.01 24.1279 43.9902 23.9975 43.9716 23.8638C43.9345 23.6133 43.8698 23.3779 43.7933 23.1368C43.7802 23.0949 43.7671 23.053 43.7536 23.0098C43.6103 22.5602 43.4429 22.1243 43.2177 21.7087C43.1862 21.6386 43.1862 21.6386 43.1862 21.5269C43.2234 21.5114 43.2606 21.4959 43.299 21.4798C43.4444 21.4175 43.585 21.3474 43.7259 21.2757C43.8047 21.2362 43.8835 21.1968 43.9624 21.1574C44.0154 21.131 44.0683 21.1044 44.1211 21.0777C44.1962 21.04 44.2715 21.0031 44.347 20.9663C44.3698 20.9547 44.3925 20.9431 44.4159 20.9312C44.5152 20.8835 44.5931 20.8571 44.7037 20.8552C44.7867 20.8942 44.7867 20.8942 44.8391 20.988C44.8525 21.0284 44.8659 21.0689 44.8798 21.1105C44.895 21.1543 44.9103 21.198 44.926 21.2431C44.9415 21.2877 44.9569 21.3322 44.9728 21.3781C45.0047 21.4566 45.0373 21.535 45.0705 21.613C45.2706 22.0902 45.2706 22.0902 45.2706 22.2342C45.2952 22.2342 45.3197 22.2342 45.345 22.2342C45.3499 22.198 45.3499 22.198 45.3548 22.1612C45.5795 21.2361 46.3346 20.3 46.9828 19.6286C47.0165 19.5935 47.0165 19.5935 47.0509 19.5577C47.3806 19.2153 47.7112 18.8988 48.0995 18.6236C48.131 18.6006 48.1625 18.5776 48.195 18.5538C48.794 18.1231 49.4223 17.8056 50.1095 17.5442C50.1351 17.5342 50.1608 17.5242 50.1873 17.5139C50.3551 17.4493 50.5252 17.3919 50.6957 17.3348C50.7199 17.3267 50.7442 17.3185 50.7691 17.3102C50.9416 17.2529 51.0905 17.2038 51.2727 17.2069C51.3187 17.2076 51.3648 17.2084 51.4122 17.2092C51.4122 17.1846 51.4122 17.1601 51.4122 17.1347C52.767 16.9083 54.1908 16.9572 55.5067 17.3581Z" fill="#4FBF8B"/>
<path d="M30.2027 33.6489C30.3328 33.7562 30.4598 33.8665 30.5851 33.9793C30.6525 34.0395 30.7206 34.0986 30.7888 34.1578C30.9496 34.2983 31.1061 34.443 31.2618 34.5891C31.3018 34.6262 31.3018 34.6262 31.3426 34.664C31.4976 34.8095 31.6411 34.9598 31.7793 35.1212C31.8487 35.2011 31.9229 35.2744 31.9993 35.3475C32.1512 35.4973 32.2842 35.6571 32.4174 35.8235C32.5134 35.9398 32.6134 36.0511 32.7158 36.1617C32.7333 36.1806 32.7508 36.1995 32.7688 36.219C32.7858 36.2373 32.8028 36.2557 32.8203 36.2747C33.0218 36.4927 33.2115 36.7176 33.3961 36.9499C33.5831 37.185 33.7711 37.4178 33.9744 37.639C34.1165 37.7949 34.2455 37.9585 34.3725 38.1267C34.4825 38.2717 34.5976 38.4108 34.7165 38.5486C34.8907 38.751 35.0516 38.9614 35.2102 39.1762C35.3478 39.3622 35.4918 39.5402 35.6427 39.7157C35.7087 39.804 35.7462 39.8848 35.782 39.9886C35.734 40.0144 35.734 40.0144 35.685 40.0407C35.159 40.3286 34.7254 40.6924 34.2931 41.1053C34.2687 41.1277 34.2443 41.1501 34.2192 41.1732C33.4386 41.911 32.906 42.989 32.6181 44.0086C32.638 43.9739 32.6578 43.9392 32.6783 43.9035C32.9574 43.4231 33.2782 42.9987 33.6603 42.5942C33.6991 42.5524 33.6991 42.5524 33.7387 42.5098C34.4277 41.7919 35.4928 41.1164 36.4906 40.9779C36.6009 40.9936 36.6009 40.9936 36.6884 41.0785C36.7303 41.1378 36.7303 41.1378 36.773 41.1983C36.8055 41.2433 36.8381 41.2882 36.8706 41.3331C36.8874 41.3569 36.9042 41.3806 36.9214 41.4051C36.9893 41.5003 37.0597 41.5935 37.1302 41.6868C37.1862 41.7609 37.2419 41.8352 37.2975 41.9096C37.3854 42.0272 37.4735 42.1447 37.5618 42.2621C37.777 42.5484 37.9919 42.8348 38.2016 43.1252C38.3137 43.2787 38.4282 43.4304 38.5426 43.5823C38.6877 43.7754 38.8309 43.9697 38.9738 44.1645C39.2364 44.5221 39.5055 44.8747 39.7749 45.2272C39.992 45.5115 40.205 45.7984 40.4115 46.0905C40.509 46.2281 40.6091 46.3635 40.7105 46.4982C41.0243 46.9154 41.3327 47.3361 41.6258 47.768C41.5115 47.9269 41.3935 48.0778 41.2606 48.2217C41.0748 48.4277 40.9228 48.6541 40.7697 48.8847C40.7458 48.9202 40.7218 48.9557 40.6972 48.9923C40.5469 49.2205 40.4278 49.4515 40.3231 49.7036C40.3046 49.7474 40.2862 49.7913 40.2672 49.8365C40.1438 50.1351 40.04 50.435 39.9508 50.7458C39.9779 50.6965 39.9779 50.6965 40.0055 50.6462C40.4537 49.8394 41.0538 49.1374 41.8003 48.5916C41.8222 48.5754 41.8441 48.5592 41.8667 48.5425C41.9287 48.4988 41.9287 48.4988 42.0353 48.438C42.1802 48.4863 42.2214 48.5721 42.2995 48.6954C42.3213 48.729 42.3213 48.729 42.3435 48.7633C42.3907 48.8361 42.4375 48.9093 42.4843 48.9824C42.5166 49.0325 42.549 49.0826 42.5814 49.1326C42.6293 49.2066 42.6772 49.2807 42.7249 49.3548C42.8342 49.5244 42.9457 49.6924 43.0589 49.8594C43.2443 50.1351 43.4163 50.4188 43.5877 50.7033C43.6318 50.7763 43.6761 50.8493 43.7205 50.9222C44.0407 51.45 44.3441 51.9878 44.6432 52.5278C44.66 52.5581 44.6769 52.5884 44.6942 52.6196C44.7858 52.7859 44.8652 52.9527 44.9386 53.128C44.9814 53.2153 45.0248 53.302 45.0689 53.3886C45.1984 53.6457 45.3252 53.904 45.4504 54.1633C45.4675 54.1983 45.4846 54.2334 45.5022 54.2695C45.6014 54.4758 45.6856 54.6828 45.7614 54.8987C45.8016 55.0079 45.8525 55.1093 45.9064 55.2125C46.0997 55.6474 46.1891 56.0707 46.018 56.5292C45.8948 56.7879 45.7296 56.9982 45.4853 57.1503C45.3853 57.1852 45.3853 57.1852 45.2736 57.1852C45.2736 57.2098 45.2736 57.2344 45.2736 57.2597C44.7012 57.4323 44.2072 57.2264 43.6929 56.9858C43.5492 56.919 43.4047 56.8544 43.26 56.79C42.5122 56.4565 41.77 56.1119 41.0601 55.7026C40.9489 55.6385 40.8365 55.5772 40.7236 55.5162C40.5065 55.3981 40.2936 55.2736 40.0811 55.1473C40.0449 55.1259 40.0086 55.1044 39.9712 55.0823C39.7064 54.9254 39.7064 54.9254 39.5786 54.8402C39.6349 54.6472 39.7569 54.5281 39.8927 54.3866C39.9163 54.3618 39.9398 54.3371 39.9641 54.3116C40.4473 53.8085 40.9754 53.4216 41.5886 53.0908C41.3238 53.1673 41.0646 53.2532 40.807 53.3513C40.7738 53.3634 40.7407 53.3754 40.7066 53.3878C40.1192 53.6145 39.5599 53.9652 39.0934 54.3877C39.0203 54.4308 39.0203 54.4308 38.9335 54.4216C38.8253 54.3911 38.7534 54.3496 38.6607 54.2864C38.6283 54.2645 38.5959 54.2427 38.5626 54.2201C38.5116 54.1851 38.5116 54.1851 38.4596 54.1493C38.4246 54.1255 38.3895 54.1017 38.3534 54.0772C38.2839 54.0301 38.2146 53.9829 38.1453 53.9356C38.0343 53.8601 37.9226 53.7859 37.8106 53.7119C37.6036 53.5739 37.3989 53.4328 37.1949 53.2905C37.1123 53.2329 37.0295 53.1756 36.9468 53.1183C36.6279 52.8968 36.312 52.6725 36.0026 52.4379C35.8233 52.3021 35.6415 52.1702 35.4586 52.0393C35.2062 51.8583 34.9583 51.6722 34.7118 51.4833C34.4527 51.2846 34.1917 51.0902 33.9249 50.902C33.7485 50.7774 33.5742 50.6499 33.3998 50.5225C33.5418 49.741 34.5621 48.9079 35.1864 48.4753C35.4142 48.3237 35.6476 48.1857 35.8936 48.0658C35.6732 48.1277 35.4603 48.1983 35.2488 48.2861C35.1795 48.3141 35.1095 48.3405 35.0391 48.3655C34.1512 48.6841 33.3764 49.2874 32.7298 49.9641C32.5971 49.9046 32.4891 49.8243 32.3738 49.7361C32.2321 49.6285 32.09 49.5217 31.9458 49.4174C31.4842 49.083 31.0262 48.7436 30.5709 48.4008C30.5383 48.3764 30.5056 48.3521 30.472 48.3269C29.7876 47.8156 29.1103 47.2946 28.4364 46.7695C28.2723 46.6417 28.1075 46.5147 27.9421 46.3885C27.7069 46.208 27.4772 46.0212 27.2476 45.8336C27.1378 45.7439 27.0273 45.6553 26.9161 45.5673C26.7499 45.4347 26.5869 45.2986 26.4257 45.16C26.3399 45.0863 26.2541 45.0143 26.1631 44.947C26.0903 44.8926 26.0903 44.8926 25.9926 44.7903C25.9859 44.6789 25.9954 44.632 26.0298 44.5297C26.0376 44.4997 26.0453 44.4696 26.0533 44.4387C26.2138 43.8796 26.5373 43.3528 26.8859 42.8919C26.9113 42.8582 26.9368 42.8245 26.963 42.7897C27.4908 42.1187 28.1404 41.576 28.8959 41.1797C27.7623 41.4016 26.7711 42.1033 25.9553 42.8919C25.9279 42.9174 25.9005 42.9429 25.8723 42.9691C25.567 43.2599 25.3125 43.6089 25.0992 43.9714C24.9103 43.9155 24.7975 43.8002 24.6595 43.6666C24.6132 43.6226 24.5668 43.5787 24.5204 43.5347C24.4983 43.5137 24.4761 43.4926 24.4533 43.4709C24.2962 43.3226 24.1323 43.183 23.964 43.0478C23.9179 43.0075 23.9179 43.0075 23.8709 42.9664C23.8709 42.9418 23.8709 42.9172 23.8709 42.8919C23.849 42.8826 23.827 42.8732 23.8045 42.8636C23.7117 42.8117 23.6616 42.7572 23.5941 42.6756C23.4649 42.5206 23.3239 42.3809 23.1794 42.2403C22.9453 42.0109 22.7331 41.7732 22.5309 41.5147C22.5011 41.4772 22.4712 41.4397 22.4405 41.401C22.2052 41.1028 21.9888 40.7939 21.7865 40.4725C21.7652 40.439 21.7652 40.439 21.7436 40.4047C21.1226 39.407 20.7304 38.182 20.977 37.0031C21.2615 35.9384 21.8168 35.1781 22.5937 34.4193C22.6801 34.3347 22.6801 34.3347 22.7426 34.2448C22.7587 34.2241 22.7749 34.2033 22.7915 34.182C22.816 34.182 22.8406 34.182 22.8659 34.182C22.8659 34.1574 22.8659 34.1328 22.8659 34.1075C22.9219 34.0524 22.9219 34.0524 22.9985 33.9889C23.1483 33.8616 23.2867 33.7267 23.4242 33.5864C23.4861 33.5242 23.5482 33.4622 23.6103 33.4003C23.6386 33.3722 23.6668 33.3441 23.6958 33.3151C24.1375 32.8945 24.6512 32.5945 25.2109 32.3581C25.2572 32.3381 25.2572 32.3381 25.3045 32.3178C27.0171 31.685 28.8834 32.5982 30.2027 33.6489Z" fill="#4FBF8B"/>
<path d="M21.8589 24.3206C22.3296 25.3597 22.3296 25.3597 22.4521 25.7317C22.4851 25.8278 22.5209 25.9211 22.559 26.0152C23.0299 27.1825 23.4272 28.3745 23.6949 29.6045C23.7262 29.7462 23.7609 29.8866 23.7967 30.0272C23.8611 30.2822 23.9249 30.5372 23.9875 30.7926C23.9973 30.8316 24.007 30.8705 24.0171 30.9107C24.0744 31.1457 24.113 31.3748 24.1294 31.6161C24.105 31.6284 24.0807 31.6406 24.0555 31.6532C23.7729 31.8005 23.5218 31.9758 23.2733 32.1745C23.2443 32.1974 23.2153 32.2203 23.1855 32.2439C22.9333 32.4464 22.7003 32.6616 22.4719 32.8903C22.4359 32.9261 22.3999 32.9619 22.3639 32.9977C22.2891 33.0723 22.2144 33.147 22.1398 33.2217C22.0644 33.2973 21.9888 33.3727 21.9129 33.4479C21.3899 33.9663 20.8991 34.4792 20.5189 35.115C20.2254 35.1043 19.967 35.0526 19.6866 34.967C19.5546 34.9299 19.4257 34.9049 19.2905 34.8824C18.8464 34.8066 18.4126 34.6762 17.9785 34.5574C17.8594 34.525 17.7401 34.4933 17.6208 34.4618C17.347 34.3895 17.0763 34.3105 16.8062 34.2259C16.6597 34.181 16.5158 34.142 16.365 34.1148C16.1188 34.068 15.8817 33.99 15.6433 33.9143C15.5636 33.889 15.4839 33.864 15.4042 33.8391C15.1585 33.7619 14.9151 33.6822 14.675 33.5889C14.2566 33.4337 13.8372 33.2824 13.4131 33.1434C13.2738 33.097 13.1368 33.0464 13 32.9933C13.0228 32.7289 13.1126 32.4874 13.1977 32.2373C13.2123 32.1936 13.2269 32.15 13.2419 32.105C13.3271 31.8518 13.4184 31.6023 13.5211 31.3556C13.5825 31.3556 13.6439 31.3556 13.7072 31.3556C13.7072 31.3801 13.7072 31.4047 13.7072 31.43C13.7636 31.4358 13.7636 31.4358 13.8212 31.4417C13.9729 31.4681 14.0879 31.5169 14.2283 31.5789C14.9647 31.8723 15.7366 32.1741 16.5149 32.3315C16.6865 32.369 16.8523 32.4204 17.02 32.4722C17.8196 32.7165 17.8196 32.7165 18.6252 32.9398C18.6604 32.9492 18.6956 32.9585 18.7319 32.9682C18.7644 32.9765 18.7968 32.9849 18.8302 32.9935C18.8582 33.0007 18.8862 33.0079 18.915 33.0154C19.0039 33.0353 19.0039 33.0353 19.1416 33.0306C19.106 33.0085 19.0703 32.9863 19.0336 32.9635C18.7063 32.76 18.3815 32.5528 18.0583 32.3428C17.9407 32.2665 17.8225 32.1911 17.7039 32.1163C17.5715 32.0324 17.4408 31.9463 17.3109 31.8586C17.0854 31.7067 16.8574 31.561 16.6245 31.4207C16.378 31.272 16.1374 31.1164 15.8987 30.9554C15.5729 30.7358 15.242 30.5255 14.9079 30.3189C14.6909 30.1846 14.4768 30.0471 14.2656 29.9039C14.3811 29.5071 14.6671 29.1633 14.91 28.8338C14.9287 28.808 14.9474 28.7823 14.9667 28.7558C14.9847 28.7318 15.0027 28.7078 15.0212 28.6831C15.037 28.6619 15.0528 28.6407 15.0691 28.6188C15.1313 28.5539 15.1866 28.5213 15.2705 28.4895C15.3521 28.5219 15.3521 28.5219 15.4404 28.5802C15.5707 28.6659 15.7016 28.7505 15.8334 28.8339C16.0864 28.9947 16.3372 29.1589 16.588 29.323C16.7625 29.4371 16.9373 29.5505 17.1133 29.6621C17.3596 29.8184 17.6033 29.9785 17.847 30.1387C18.0331 30.2604 18.2202 30.3797 18.41 30.4955C18.6483 30.6414 18.882 30.7936 19.1152 30.9475C19.4755 31.1854 19.8371 31.4209 20.2029 31.6503C20.4709 31.8185 20.7364 31.9905 21.0018 32.1628C21.1268 32.2438 21.252 32.3243 21.3773 32.4048C21.3997 32.4192 21.4221 32.4336 21.4452 32.4484C21.4963 32.4812 21.5473 32.5139 21.5983 32.5467C21.1341 31.7039 20.6529 30.8775 20.115 30.0795C20.0753 30.0202 20.0362 29.9606 19.997 29.901C19.7969 29.5962 19.5827 29.3029 19.365 29.0106C19.3361 28.9717 19.3072 28.9329 19.2774 28.8928C19.1954 28.7829 19.1128 28.6733 19.03 28.5639C19.0006 28.5249 18.9712 28.4859 18.9409 28.4457C18.7504 28.1945 18.552 27.9518 18.347 27.7123C18.2563 27.6062 18.1684 27.4979 18.0808 27.3891C17.927 27.1999 17.7636 27.021 17.5981 26.8421C17.2805 26.4981 17.2805 26.4981 17.2805 26.405C17.369 26.3347 17.4576 26.2693 17.5504 26.205C17.5783 26.1855 17.6062 26.1661 17.635 26.1461C17.8583 25.9925 18.0853 25.8451 18.3158 25.7025C18.3475 25.6823 18.3793 25.6621 18.412 25.6413C18.4419 25.6232 18.4718 25.6051 18.5026 25.5864C18.529 25.5702 18.5554 25.5539 18.5826 25.5372C18.6578 25.5117 18.6578 25.5117 18.7382 25.5411C18.9727 25.6953 19.1428 25.9359 19.3164 26.1519C19.3949 26.2473 19.4763 26.3379 19.5604 26.4283C19.7307 26.6152 19.8824 26.8142 20.0346 27.0158C20.1687 27.1934 20.3062 27.3677 20.4467 27.5403C20.6606 27.805 20.8568 28.0803 21.0504 28.3601C21.1226 28.464 21.1955 28.5675 21.2684 28.6709C21.3218 28.7469 21.3751 28.8229 21.4285 28.8989C21.4536 28.9345 21.4787 28.97 21.5046 29.0067C21.6485 29.2127 21.7795 29.4206 21.8961 29.6434C21.8403 29.4095 21.7812 29.1798 21.7019 28.9527C21.6715 28.8579 21.6485 28.7632 21.6259 28.6663C21.5601 28.3999 21.4754 28.141 21.3879 27.8811C21.3611 27.8011 21.3346 27.7209 21.3081 27.6408C21.2174 27.3685 21.1199 27.1022 21.0068 26.8382C20.9486 26.6997 20.8997 26.5588 20.8515 26.4167C20.7863 26.2284 20.7194 26.0435 20.6353 25.8627C20.576 25.7349 20.5195 25.6059 20.463 25.4768C20.4518 25.4511 20.4405 25.4254 20.4289 25.3989C20.3431 25.2023 20.2613 25.0045 20.1839 24.8045C20.4733 24.6694 20.7697 24.5713 21.0749 24.4788C21.1311 24.4617 21.1311 24.4617 21.1884 24.4443C21.6248 24.3139 21.6248 24.3139 21.8589 24.3206Z" fill="#4FBF8B"/>
</g>
<defs>
<clipPath id="clip0_3541_1472">
<rect width="73" height="73" fill="white"/>
</clipPath>
</defs>
</svg>
