<svg width="14" height="14" viewBox="0 0 14 14" fill="none" xmlns="http://www.w3.org/2000/svg">
<g clip-path="url(#clip0_3333_269)">
<path d="M0.583008 0.583008H2.91634L4.47967 8.39384C4.53302 8.6624 4.67912 8.90365 4.89241 9.07535C5.1057 9.24705 5.37258 9.33825 5.64634 9.33301H11.3163C11.5901 9.33825 11.857 9.24705 12.0703 9.07535C12.2836 8.90365 12.4297 8.6624 12.483 8.39384L13.4163 3.49967H3.49967M5.83301 12.2497C5.83301 12.5718 5.57184 12.833 5.24967 12.833C4.92751 12.833 4.66634 12.5718 4.66634 12.2497C4.66634 11.9275 4.92751 11.6663 5.24967 11.6663C5.57184 11.6663 5.83301 11.9275 5.83301 12.2497ZM12.2497 12.2497C12.2497 12.5718 11.9885 12.833 11.6663 12.833C11.3442 12.833 11.083 12.5718 11.083 12.2497C11.083 11.9275 11.3442 11.6663 11.6663 11.6663C11.9885 11.6663 12.2497 11.9275 12.2497 12.2497Z" stroke="#4FBF8B" stroke-linecap="round" stroke-linejoin="round"/>
</g>
<defs>
<clipPath id="clip0_3333_269">
<rect width="14" height="14" fill="white"/>
</clipPath>
</defs>
</svg>
