<svg width="44" height="44" viewBox="0 0 44 44" fill="none" xmlns="http://www.w3.org/2000/svg">
<rect width="44" height="44" rx="4" fill="#4FBF8B"/>
<path d="M17.5441 11.385C17.6264 11.3837 17.7087 11.3823 17.7935 11.3809C18.7257 11.377 19.6418 11.5738 20.444 12.0615C20.5886 12.1075 20.5886 12.1075 20.708 12.1275C20.708 12.1711 20.708 12.2147 20.708 12.2595C20.7466 12.267 20.7852 12.2745 20.825 12.2822C21.4792 12.475 22.2465 13.294 22.622 13.8435C22.622 13.9089 22.622 13.9742 22.622 14.0415C22.6655 14.0415 22.7091 14.0415 22.754 14.0415C23.0954 14.5691 23.3446 15.0907 23.5418 15.6874C23.5612 15.746 23.5807 15.8045 23.6006 15.8648C23.9429 16.9404 23.9458 18.2414 23.612 19.3215C23.588 19.3992 23.564 19.4769 23.5393 19.5569C23.1564 20.7018 23.1564 20.7018 22.7875 21.0698C22.679 21.1702 22.679 21.1702 22.5985 21.3222C22.4679 21.5356 22.309 21.7132 22.1393 21.8955C22.1089 21.9291 22.0785 21.9626 22.0472 21.9971C21.8355 22.2268 21.6181 22.4339 21.368 22.6215C21.3026 22.6215 21.2373 22.6215 21.17 22.6215C21.17 22.6651 21.17 22.7087 21.17 22.7535C20.6516 23.084 20.1377 23.3392 19.5571 23.5414C19.5017 23.5608 19.4463 23.5802 19.3892 23.6002C18.3045 23.9647 16.9158 23.9547 15.824 23.6115C15.748 23.5891 15.672 23.5666 15.5937 23.5435C14.6625 23.2422 13.6298 22.6504 12.986 21.8955C12.986 21.852 12.986 21.8084 12.986 21.7635C12.9424 21.7635 12.8988 21.7635 12.854 21.7635C12.8472 21.7213 12.8404 21.6791 12.8333 21.6357C12.8184 21.5907 12.8034 21.5458 12.788 21.4995C12.7226 21.4778 12.6573 21.456 12.59 21.4335C12.4137 21.2061 12.273 20.9558 12.128 20.7075C12.0928 20.6481 12.0577 20.5886 12.0215 20.5273C11.2475 19.1093 11.1369 17.3284 11.5825 15.7884C11.7036 15.3921 11.8526 15.0563 12.062 14.7015C12.1122 14.5517 12.1122 14.5517 12.128 14.4375C12.1715 14.4375 12.2151 14.4375 12.26 14.4375C12.2766 14.3906 12.2931 14.3436 12.3102 14.2952C12.512 13.8319 12.8657 13.3809 13.25 13.0515C13.3153 13.0298 13.3806 13.008 13.448 12.9855C13.448 12.942 13.448 12.8984 13.448 12.8535C13.7866 12.5728 14.1694 12.3457 14.5571 12.1397C14.6524 12.0882 14.7464 12.0341 14.8386 11.9772C15.6696 11.4728 16.5951 11.3889 17.5441 11.385ZM17.474 14.1075C17.474 14.2164 17.474 14.3253 17.474 14.4375C17.4309 14.4392 17.3879 14.4409 17.3435 14.4427C16.9597 14.4676 16.7245 14.518 16.418 14.7675C16.3302 14.8268 16.3302 14.8268 16.2406 14.8872C15.9069 15.2028 15.8753 15.508 15.8611 15.9514C15.8723 16.4326 15.9585 16.7443 16.2942 17.0899C16.8446 17.4381 16.8446 17.4381 17.474 17.5395C17.474 18.3236 17.474 19.1077 17.474 19.9155C17.0955 19.7894 16.8103 19.6891 16.5665 19.3669C16.4695 19.1585 16.4087 18.95 16.352 18.7275C16.0579 18.7602 16.0579 18.7602 15.758 18.7935C15.7905 19.2487 15.8708 19.6361 16.2066 19.9661C16.5969 20.2778 16.971 20.4021 17.474 20.3775C17.474 20.6171 17.474 20.8567 17.474 21.1035C17.5829 21.1035 17.6918 21.1035 17.804 21.1035C17.804 20.864 17.804 20.6244 17.804 20.3775C17.8571 20.383 17.9101 20.3884 17.9648 20.394C18.278 20.3721 18.5157 20.252 18.794 20.1135C18.794 20.07 18.794 20.0264 18.794 19.9815C18.8339 19.965 18.8738 19.9485 18.9149 19.9315C19.0796 19.8371 19.1386 19.7555 19.2353 19.5938C19.2628 19.549 19.2903 19.5043 19.3186 19.4582C19.5173 19.0667 19.5013 18.6027 19.4045 18.183C19.1955 17.7234 18.9241 17.4223 18.464 17.2095C18.2462 17.166 18.0284 17.1224 17.804 17.0775C17.8257 16.3806 17.8475 15.6836 17.87 14.9655C18.4608 15.261 18.4675 15.2724 18.662 15.8235C18.858 15.8018 19.054 15.78 19.256 15.7575C19.222 15.409 19.1072 15.1918 18.926 14.8995C18.8824 14.8995 18.8388 14.8995 18.794 14.8995C18.794 14.856 18.794 14.8124 18.794 14.7675C18.7504 14.7675 18.7068 14.7675 18.662 14.7675C18.662 14.724 18.662 14.6804 18.662 14.6355C18.4665 14.5252 18.3075 14.482 18.0845 14.4623C18.0053 14.4549 18.0053 14.4549 17.9246 14.4473C17.8848 14.4441 17.845 14.4409 17.804 14.4375C17.804 14.3286 17.804 14.2197 17.804 14.1075C17.6951 14.1075 17.5862 14.1075 17.474 14.1075Z" fill="white"/>
<path d="M25.7244 20.5102C27.5676 20.4526 28.9663 20.9639 30.3444 22.2262C30.6126 22.4903 30.7812 22.7103 30.8724 23.0842C30.9159 23.0842 30.9595 23.0842 31.0044 23.0842C31.8543 24.5983 32.025 26.1248 31.6063 27.805C31.1992 29.2378 30.2059 30.361 28.9584 31.1362C27.7238 31.8186 26.1722 32.0138 24.8004 31.6642C24.7435 31.6521 24.6867 31.64 24.6281 31.6276C24.0292 31.4874 23.4634 31.2129 22.9524 30.8722C22.9524 30.8286 22.9524 30.7851 22.9524 30.7402C22.9145 30.7339 22.8766 30.7276 22.8376 30.7211C22.6552 30.6638 22.5545 30.5782 22.412 30.4515C22.3661 30.4115 22.3203 30.3715 22.273 30.3303C22.1604 30.2122 22.1604 30.2122 22.0944 30.0142C22.0372 29.9897 22.0372 29.9897 21.9789 29.9647C21.7549 29.8403 21.6269 29.6402 21.5004 29.4202C21.5004 29.3766 21.5004 29.3331 21.5004 29.2882C21.4568 29.2882 21.4132 29.2882 21.3684 29.2882C20.6822 28.1328 20.4822 27.0432 20.5104 25.7242C20.6574 25.6498 20.8045 25.5756 20.9517 25.5015C20.993 25.4805 21.0343 25.4596 21.0769 25.438C21.2522 25.3499 21.4264 25.2654 21.6089 25.1931C21.7819 25.1231 21.9346 25.0368 22.0944 24.9405C22.1488 24.908 22.2033 24.8755 22.2594 24.842C22.4342 24.7278 22.5929 24.6025 22.7544 24.4702C22.8057 24.4305 22.8571 24.3907 22.9101 24.3498C23.5765 23.8584 23.5765 23.8584 24.0744 23.2162C24.1179 23.2162 24.1615 23.2162 24.2064 23.2162C24.2237 23.1789 24.2411 23.1417 24.259 23.1033C24.3449 22.9397 24.4446 22.7967 24.5529 22.647C25.023 21.9811 25.4301 21.2721 25.7244 20.5102ZM26.0544 22.9522C26.0544 23.0611 26.0544 23.17 26.0544 23.2822C26.0168 23.2839 25.9793 23.2856 25.9407 23.2874C25.4767 23.3214 25.1709 23.4257 24.8457 23.7772C24.5529 24.211 24.534 24.6114 24.6024 25.1302C24.7047 25.3412 24.8302 25.4962 24.9984 25.6582C25.0419 25.7018 25.0855 25.7453 25.1304 25.7902C25.1957 25.7902 25.261 25.7902 25.3284 25.7902C25.3284 25.8338 25.3284 25.8773 25.3284 25.9222C25.6048 26.0523 25.7243 26.0542 26.0544 26.0542C26.0544 26.7729 26.0544 27.4917 26.0544 28.2322C25.3631 27.973 25.3631 27.973 25.2211 27.6836C25.1485 27.4887 25.0954 27.3148 25.0644 27.1102C24.8901 27.132 24.7159 27.1538 24.5364 27.1762C24.4372 27.4738 24.5447 27.6884 24.6684 27.9682C24.8543 28.2777 25.1224 28.5009 25.4604 28.6282C25.6604 28.6662 25.8503 28.6817 26.0544 28.6942C26.0544 28.912 26.0544 29.1298 26.0544 29.3542C26.1415 29.3542 26.2286 29.3542 26.3184 29.3542C26.3184 29.1364 26.3184 28.9186 26.3184 28.6942C26.3932 28.6915 26.4681 28.6888 26.5452 28.686C26.9894 28.6293 27.3567 28.3622 27.6342 28.0177C27.8382 27.695 27.9397 27.3295 27.875 26.9499C27.7065 26.3997 27.4443 26.0961 26.9541 25.8034C26.7509 25.7017 26.7509 25.7017 26.3844 25.6582C26.3626 25.0048 26.3408 24.3514 26.3184 23.6782C26.9124 23.9752 26.9124 23.9752 27.0444 24.2557C27.0702 24.3085 27.0961 24.3612 27.1227 24.4156C27.1404 24.4554 27.1581 24.4952 27.1764 24.5362C27.4377 24.5035 27.4377 24.5035 27.7044 24.4702C27.5965 24.0755 27.4867 23.7635 27.1764 23.4802C26.8867 23.3434 26.6391 23.2822 26.3184 23.2822C26.3184 23.1733 26.3184 23.0644 26.3184 22.9522C26.2312 22.9522 26.1441 22.9522 26.0544 22.9522Z" fill="white"/>
<path d="M21.4997 10.2798C21.4997 10.3234 21.4997 10.3669 21.4997 10.4118C21.557 10.4233 21.557 10.4233 21.6154 10.435C21.7743 10.4809 21.8854 10.5443 22.0235 10.6346C22.1775 10.7344 22.3295 10.8291 22.4897 10.9192C22.555 10.9621 22.555 10.9621 22.6217 11.0058C22.6217 11.0494 22.6217 11.0929 22.6217 11.1378C22.6604 11.1558 22.6992 11.1737 22.7392 11.1922C23.1701 11.4205 23.5014 11.8161 23.8303 12.1691C23.8813 12.2235 23.8813 12.2235 23.9334 12.2791C24.1194 12.4818 24.2678 12.6791 24.4037 12.9198C24.5872 13.1974 24.5872 13.1974 24.773 13.4735C24.9872 13.799 25.1274 14.1388 25.2617 14.5038C25.282 14.5584 25.3024 14.6129 25.3234 14.6691C25.7803 15.9224 25.9334 17.1383 25.7897 18.4638C25.7829 18.5433 25.7762 18.6227 25.7693 18.7046C25.6331 20.0218 25.1054 21.1849 24.4037 22.2918C24.3684 22.3546 24.3332 22.4174 24.2969 22.4821C24.2668 22.5282 24.2367 22.5743 24.2057 22.6218C24.1621 22.6218 24.1185 22.6218 24.0737 22.6218C24.0532 22.6626 24.0328 22.7035 24.0118 22.7456C23.9664 22.8363 23.921 22.9271 23.8757 23.0178C23.8321 23.0178 23.7885 23.0178 23.7437 23.0178C23.7266 23.0563 23.7096 23.0947 23.6921 23.1343C23.6052 23.2937 23.5093 23.4018 23.3807 23.5293C23.3405 23.5698 23.3003 23.6103 23.259 23.652C23.1497 23.7438 23.1497 23.7438 23.0177 23.7438C23.0177 23.7874 23.0177 23.8309 23.0177 23.8758C22.6964 24.1732 22.3002 24.3976 21.9305 24.6284C21.8049 24.7077 21.6824 24.7919 21.5615 24.8782C21.2909 25.0452 21.0047 25.1505 20.7077 25.2618C20.6446 25.2872 20.6446 25.2872 20.5803 25.3131C18.7736 26.0304 16.7185 26.0737 14.8997 25.3938C14.7994 25.3631 14.6991 25.3328 14.5985 25.3031C13.7034 25.0036 12.9358 24.4732 12.2189 23.8727C12.0592 23.7375 12.0592 23.7375 11.8637 23.6118C11.8637 23.5682 11.8637 23.5247 11.8637 23.4798C11.8201 23.4798 11.7765 23.4798 11.7317 23.4798C11.7317 23.4362 11.7317 23.3927 11.7317 23.3478C11.6881 23.3478 11.6445 23.3478 11.5997 23.3478C10.8041 22.4955 10.1161 21.4249 9.75165 20.3118C9.73111 20.2507 9.73111 20.2507 9.71015 20.1884C9.40896 19.2687 9.35171 18.3712 9.35565 17.4078C9.35583 17.3481 9.35601 17.2885 9.3562 17.227C9.36271 16.6006 9.42151 16.0373 9.61733 15.4394C9.66862 15.282 9.70859 15.1327 9.74469 14.972C9.81392 14.6886 9.93047 14.4438 10.0652 14.1862C10.1002 14.1177 10.1002 14.1177 10.136 14.0479C10.2052 13.9135 10.2752 13.7796 10.3457 13.6458C10.3831 13.5746 10.4205 13.5034 10.4591 13.43C10.7084 12.9652 10.9557 12.5642 11.3357 12.1938C11.3833 12.1325 11.4309 12.0713 11.48 12.0082C11.5195 11.9605 11.559 11.9129 11.5997 11.8638C11.6432 11.8638 11.6868 11.8638 11.7317 11.8638C11.7317 11.8202 11.7317 11.7767 11.7317 11.7318C11.7752 11.7318 11.8188 11.7318 11.8637 11.7318C11.8637 11.6882 11.8637 11.6447 11.8637 11.5998C12.0925 11.3862 12.3424 11.1976 12.5897 11.0058C12.6418 10.9651 12.694 10.9245 12.7477 10.8826C15.2877 9.00461 18.7228 8.91341 21.4997 10.2798ZM14.5037 11.7318C14.4462 11.7547 14.3888 11.7776 14.3296 11.8012C13.3551 12.1926 12.3591 13.2605 11.8637 14.1738C11.8184 14.3499 11.8184 14.3499 11.7977 14.5038C11.7541 14.5038 11.7105 14.5038 11.6657 14.5038C10.8593 16.3676 10.6942 18.1901 11.4111 20.1129C11.5002 20.3223 11.6156 20.5122 11.7317 20.7078C11.7812 20.8687 11.7812 20.8687 11.7977 20.9718C11.8412 20.9718 11.8848 20.9718 11.9297 20.9718C11.9433 21.0154 11.9569 21.0589 11.9709 21.1038C12.0959 21.3765 12.2719 21.5957 12.4577 21.8298C12.4889 21.87 12.5201 21.9103 12.5523 21.9517C12.6273 22.0459 12.7071 22.1363 12.7877 22.2258C12.8312 22.2258 12.8748 22.2258 12.9197 22.2258C12.9353 22.2643 12.951 22.3027 12.9671 22.3423C13.0697 22.5212 13.1849 22.6129 13.3487 22.7373C13.4273 22.798 13.4273 22.798 13.5075 22.86C13.6363 22.964 13.6363 22.964 13.7777 22.9518C13.7777 22.9954 13.7777 23.0389 13.7777 23.0838C13.8152 23.1046 13.8527 23.1253 13.8913 23.1467C13.9423 23.175 13.9933 23.2032 14.0458 23.2323C14.1204 23.2737 14.1204 23.2737 14.1966 23.3158C14.3292 23.39 14.4605 23.4666 14.5911 23.5443C14.834 23.683 15.0833 23.7866 15.3452 23.8841C15.3874 23.9006 15.4296 23.9172 15.473 23.9343C16.1561 24.1912 16.836 24.2283 17.5603 24.2264C17.6807 24.228 17.6807 24.228 17.8035 24.2296C18.5519 24.23 19.2561 24.1005 19.9569 23.8387C20.0313 23.8114 20.1056 23.7841 20.1822 23.7559C20.3406 23.6926 20.4911 23.6255 20.6417 23.5458C20.6417 23.5022 20.6417 23.4587 20.6417 23.4138C20.6879 23.408 20.7342 23.4022 20.7819 23.3963C21.0141 23.337 21.1696 23.2347 21.3677 23.1003C21.4677 23.0334 21.4677 23.0334 21.5698 22.9652C21.7636 22.8198 21.9262 22.6645 22.0937 22.4898C22.1315 22.4535 22.1694 22.4171 22.2084 22.3797C22.7014 21.9038 23.1048 21.3855 23.4137 20.7738C23.4462 20.7119 23.4788 20.6499 23.5124 20.5861C24.019 19.6058 24.23 18.7099 24.2222 17.6058C24.2227 17.5342 24.2232 17.4625 24.2237 17.3887C24.2219 16.6391 24.1132 15.9749 23.822 15.2834C23.8002 15.229 23.7784 15.1746 23.7559 15.1186C23.5461 14.6068 23.2886 14.1288 22.9723 13.6747C22.9339 13.6188 22.8955 13.5629 22.856 13.5053C22.8222 13.4645 22.7885 13.4238 22.7537 13.3818C22.7101 13.3818 22.6665 13.3818 22.6217 13.3818C22.6067 13.3328 22.5917 13.2838 22.5763 13.2333C22.4719 13.0146 22.3531 12.9306 22.1597 12.7878C22.112 12.7388 22.0644 12.6898 22.0153 12.6393C21.9075 12.5085 21.9075 12.5085 21.7637 12.5238C21.7637 12.4802 21.7637 12.4367 21.7637 12.3918C21.6392 12.2915 21.5161 12.2008 21.3842 12.1113C21.3451 12.0848 21.3061 12.0583 21.2659 12.0309C19.2942 10.7163 16.5743 10.5169 14.5037 11.7318Z" fill="white"/>
<path d="M26.1197 18.6615C27.5698 18.5613 28.92 19.0466 30.1457 19.7835C30.2047 19.8187 30.2637 19.854 30.3244 19.8903C30.5117 20.0032 30.6943 20.1176 30.8717 20.2455C30.8717 20.2891 30.8717 20.3326 30.8717 20.3775C30.9248 20.4 30.9248 20.4 30.979 20.4229C32.1733 21.0829 32.9898 22.7099 33.3823 23.9745C33.6866 25.0828 33.7148 26.2276 33.5571 27.3611C33.5494 27.4178 33.5416 27.4745 33.5336 27.5329C33.3612 28.6802 32.8765 29.8476 32.1257 30.7395C32.0822 30.7395 32.0386 30.7395 31.9937 30.7395C31.9801 30.7844 31.9665 30.8294 31.9525 30.8756C31.7274 31.3566 31.3096 31.7054 30.8717 31.9935C30.8282 31.9935 30.7846 31.9935 30.7397 31.9935C30.7253 32.032 30.7108 32.0704 30.6959 32.1101C30.5795 32.3047 30.4443 32.385 30.253 32.505C30.1899 32.5455 30.1267 32.586 30.0617 32.6277C29.8817 32.7195 29.8817 32.7195 29.6177 32.7195C29.6177 32.7631 29.6177 32.8066 29.6177 32.8515C27.9701 33.7783 25.8049 33.8421 24.0077 33.3795C23.1046 33.1127 22.337 32.6685 21.584 32.1057C21.4704 32.0209 21.3537 31.9402 21.2357 31.8615C21.2357 31.818 21.2357 31.7744 21.2357 31.7295C21.1973 31.7125 21.1588 31.6955 21.1192 31.678C20.9598 31.591 20.8518 31.4952 20.7242 31.3665C20.6837 31.3264 20.6432 31.2862 20.6015 31.2448C20.5097 31.1355 20.5097 31.1355 20.5097 31.0035C20.4662 31.0035 20.4226 31.0035 20.3777 31.0035C19.9702 30.5264 19.6816 29.9709 19.3877 29.4195C19.3548 29.3583 19.3219 29.297 19.288 29.2339C18.884 28.4184 18.6462 27.4256 18.6576 26.5155C18.6582 26.4529 18.6588 26.3903 18.6594 26.3258C18.6602 26.2795 18.661 26.2332 18.6617 26.1855C19.1336 26.0387 19.618 25.9215 20.1137 25.9215C20.1202 25.995 20.1267 26.0685 20.1333 26.1443C20.28 27.6896 20.6986 29.0741 21.7965 30.2262C21.8957 30.3435 21.8957 30.3435 21.8957 30.4755C21.9334 30.4928 21.9711 30.5101 22.01 30.5279C22.1707 30.6134 22.3023 30.7123 22.4444 30.8261C22.4967 30.8672 22.549 30.9083 22.6029 30.9507C22.6919 31.0208 22.7808 31.091 22.8695 31.1616C23.9985 32.0185 25.6242 32.2871 27.0058 32.1044C27.6192 31.9969 28.1971 31.7975 28.7597 31.5315C28.8091 31.5091 28.8584 31.4866 28.9093 31.4635C29.1371 31.3556 29.3399 31.2348 29.5435 31.086C29.7497 30.9375 29.7497 30.9375 29.8817 30.9375C29.9035 30.8722 29.9253 30.8068 29.9477 30.7395C29.9872 30.7205 30.0267 30.7014 30.0674 30.6818C30.2584 30.5835 30.3471 30.4476 30.4757 30.2775C30.5417 30.2115 30.6077 30.1455 30.6737 30.0795C30.7173 30.0142 30.7609 29.9488 30.8057 29.8815C30.8493 29.8815 30.8929 29.8815 30.9377 29.8815C30.9527 29.8366 30.9677 29.7917 30.9831 29.7454C31.0697 29.5515 31.0697 29.5515 31.2224 29.3453C31.8851 28.4428 32.1523 27.2406 32.1505 26.1401C32.1503 26.0361 32.1503 26.0361 32.1502 25.9299C32.1413 25.3607 32.0535 24.8759 31.8617 24.3375C31.8404 24.2714 31.819 24.2053 31.797 24.1372C31.5276 23.3376 31.0115 22.3633 30.3272 21.8501C30.2891 21.8216 30.251 21.793 30.2117 21.7635C30.2117 21.72 30.2117 21.6764 30.2117 21.6315C30.1682 21.6315 30.1246 21.6315 30.0797 21.6315C30.0797 21.588 30.0797 21.5444 30.0797 21.4995C30.0144 21.4995 29.9491 21.4995 29.8817 21.4995C29.8817 21.456 29.8817 21.4124 29.8817 21.3675C29.8469 21.3509 29.8121 21.3343 29.7763 21.3173C29.6169 21.2351 29.4637 21.1448 29.3097 21.0529C28.2332 20.4172 27.1545 20.2146 25.9217 20.1135C25.9312 20.0481 25.9406 19.9827 25.9504 19.9153C25.9878 19.6529 26.0231 19.3903 26.0579 19.1276C26.0639 19.0825 26.0699 19.0374 26.076 18.9909C26.0906 18.8811 26.1052 18.7713 26.1197 18.6615Z" fill="white"/>
<path d="M17.8037 17.6719C18.1806 17.7472 18.1806 17.7472 18.373 17.8575C18.4106 17.8783 18.4482 17.8992 18.4869 17.9207C18.6276 18.0257 18.706 18.1125 18.7937 18.2659C18.82 18.4822 18.82 18.4822 18.8185 18.7238C18.819 18.8033 18.8195 18.8828 18.82 18.9648C18.7803 19.3043 18.6508 19.466 18.4101 19.7014C18.1997 19.8499 18.1997 19.8499 17.8037 19.9159C17.8037 19.1754 17.8037 18.4348 17.8037 17.6719Z" fill="white"/>
<path d="M17.4735 14.9004C17.4735 15.5756 17.4735 16.2508 17.4735 16.9464C17.0003 16.8788 16.8464 16.8261 16.5495 16.4844C16.3876 16.174 16.394 15.8919 16.4835 15.5604C16.6429 15.229 16.8286 15.096 17.15 14.9442C17.2755 14.9004 17.2755 14.9004 17.4735 14.9004Z" fill="white"/>
<path d="M26.3184 26.1855C26.7016 26.2622 26.9729 26.3648 27.2382 26.6558C27.3619 26.9905 27.3803 27.323 27.248 27.6587C27.079 27.9542 26.9127 28.1191 26.5824 28.2315C26.4952 28.2315 26.4081 28.2315 26.3184 28.2315C26.3184 27.5564 26.3184 26.8812 26.3184 26.1855Z" fill="white"/>
<path d="M26.0538 23.6777C26.0538 24.3094 26.0538 24.941 26.0538 25.5917C25.7582 25.5326 25.5766 25.4899 25.3278 25.3277C25.1478 25.0156 25.0908 24.7615 25.1298 24.4037C25.2938 23.9635 25.5751 23.6777 26.0538 23.6777Z" fill="white"/>
<path d="M13.4478 12.8535C13.4914 12.8535 13.535 12.8535 13.5798 12.8535C13.4748 13.1265 13.2759 13.3308 13.0518 13.5135C13.0083 13.5135 12.9647 13.5135 12.9198 13.5135C12.8763 13.6006 12.8327 13.6878 12.7878 13.7775C12.7225 13.7775 12.6572 13.7775 12.5898 13.7775C13.1363 13.1451 13.1363 13.1451 13.3158 12.9855C13.3594 12.9855 13.403 12.9855 13.4478 12.9855C13.4478 12.942 13.4478 12.8984 13.4478 12.8535Z" fill="white"/>
<path d="M12.0619 14.7021C12.1054 14.7893 12.149 14.8764 12.1939 14.9661C12.1285 15.0097 12.0632 15.0533 11.9959 15.0981C11.9741 15.1635 11.9523 15.2288 11.9299 15.2961C11.8863 15.2961 11.8427 15.2961 11.7979 15.2961C11.8677 15.0715 11.9304 14.8993 12.0619 14.7021Z" fill="white"/>
</svg>
