<svg width="44" height="44" viewBox="0 0 44 44" fill="none" xmlns="http://www.w3.org/2000/svg">
<rect width="44" height="44" rx="4" fill="#4FBF8B"/>
<g clip-path="url(#clip0_3515_651)">
<path d="M17.9694 11.3198C18.0176 11.3197 18.0658 11.3197 18.114 11.3196C18.2178 11.3195 18.3217 11.3195 18.4255 11.3195C18.5799 11.3196 18.7343 11.3195 18.8887 11.3194C19.1806 11.3192 19.4725 11.3191 19.7644 11.3191C19.9898 11.3191 20.2152 11.3191 20.4405 11.319C20.5056 11.319 20.5707 11.319 20.6358 11.319C20.6519 11.319 20.6681 11.319 20.6848 11.319C21.1392 11.3188 21.5936 11.3188 22.048 11.3188C22.0737 11.3188 22.0737 11.3188 22.0999 11.3188C22.1865 11.3188 22.2731 11.3188 22.3597 11.3188C22.3855 11.3188 22.3855 11.3188 22.4119 11.3188C22.4467 11.3188 22.4814 11.3188 22.5162 11.3188C23.058 11.3188 23.5997 11.3187 24.1414 11.3184C24.7511 11.3181 25.3607 11.3179 25.9704 11.318C26.0354 11.318 26.1004 11.318 26.1654 11.318C26.1815 11.318 26.1975 11.318 26.214 11.318C26.4711 11.318 26.7283 11.3178 26.9854 11.3177C27.2438 11.3175 27.5023 11.3175 27.7607 11.3176C27.914 11.3177 28.0673 11.3177 28.2207 11.3175C28.3354 11.3173 28.4501 11.3174 28.5648 11.3176C28.611 11.3176 28.6573 11.3176 28.7035 11.3175C29.0149 11.3168 29.3264 11.3192 29.6296 11.4021C29.6447 11.4061 29.6598 11.4102 29.6754 11.4144C29.9896 11.5029 30.2528 11.6408 30.4237 11.9399C30.4743 12.0432 30.5018 12.1472 30.5222 12.2604C30.5245 12.2726 30.5268 12.2849 30.5291 12.2975C30.565 12.5232 30.5436 12.7631 30.5328 12.9904C30.5316 13.0171 30.5304 13.0438 30.5291 13.0705C30.5258 13.1431 30.5224 13.2157 30.519 13.2883C30.5153 13.367 30.5117 13.4457 30.5081 13.5245C30.5018 13.661 30.4955 13.7976 30.4891 13.9342C30.4798 14.1338 30.4705 14.3334 30.4613 14.533C30.4462 14.8598 30.4311 15.1867 30.4159 15.5135C30.4014 15.8258 30.3869 16.1382 30.3724 16.4505C30.3715 16.4695 30.3707 16.4885 30.3698 16.5081C30.3618 16.6798 30.3539 16.8515 30.3459 17.0232C30.3407 17.1364 30.3354 17.2497 30.3302 17.3629C30.3289 17.3908 30.3289 17.3908 30.3276 17.4192C30.3156 17.6788 30.3035 17.9385 30.2914 18.1981C30.2839 18.3594 30.2764 18.5206 30.2689 18.6819C30.2677 18.7079 30.2677 18.7079 30.2665 18.7344C30.2467 19.1602 30.2272 19.5861 30.2086 20.0121C30.2049 20.098 30.2011 20.1839 30.1973 20.2698C30.1963 20.293 30.1953 20.3161 30.1942 20.34C30.1922 20.3852 30.1903 20.4303 30.1883 20.4755C30.1836 20.5802 30.1791 20.6849 30.1747 20.7897C30.1171 22.1724 30.1171 22.1724 29.664 22.6176C29.3923 22.8629 29.0469 22.9827 28.689 22.982C28.6744 22.9821 28.6597 22.9821 28.6446 22.9822C28.5955 22.9823 28.5463 22.9823 28.4972 22.9823C28.4616 22.9824 28.426 22.9825 28.3904 22.9826C28.2925 22.9828 28.1945 22.9829 28.0966 22.983C27.9909 22.9831 27.8852 22.9833 27.7795 22.9835C27.5958 22.9839 27.4121 22.9842 27.2284 22.9844C26.9605 22.9848 26.6926 22.9852 26.4246 22.9857C26.2991 22.986 26.1736 22.9862 26.0481 22.9864C26.0356 22.9865 26.023 22.9865 26.01 22.9865C25.7104 22.987 25.4107 22.9875 25.1111 22.988C25.098 22.988 25.0849 22.988 25.0714 22.9881C24.9521 22.9882 24.8328 22.9884 24.7135 22.9886C24.4261 22.9891 24.1387 22.9895 23.8513 22.99C23.8321 22.99 23.8321 22.99 23.8126 22.99C23.5175 22.9905 23.2225 22.991 22.9274 22.9915C22.9148 22.9916 22.9022 22.9916 22.8892 22.9916C22.7629 22.9918 22.6365 22.9921 22.5101 22.9923C22.2554 22.9928 22.0008 22.9932 21.7461 22.9935C20.7286 22.9949 19.7111 22.9985 18.6937 23.0075C18.6714 23.0077 18.6491 23.0079 18.6261 23.0081C17.8482 23.015 17.0703 23.0246 16.2924 23.0354C16.276 23.0357 16.2596 23.0359 16.2427 23.0361C16.2093 23.0366 16.176 23.0371 16.1426 23.0376C16.1263 23.0378 16.11 23.0381 16.0932 23.0383C16.0788 23.0386 16.0643 23.0388 16.0494 23.039C15.6288 23.0437 15.243 22.9674 14.9285 22.6595C14.9149 22.6457 14.9013 22.6318 14.8873 22.6176C14.8718 22.6021 14.8718 22.6021 14.8559 22.5863C14.6008 22.3079 14.5648 21.9148 14.5697 21.5513C14.5767 21.3334 14.6141 21.12 14.6497 20.9056C14.6673 20.7977 14.6839 20.6895 14.7005 20.5815C14.7049 20.5532 14.7093 20.5248 14.7137 20.4965C14.7625 20.182 14.8048 19.8667 14.8449 19.5509C14.8468 19.5365 14.8486 19.5221 14.8505 19.5072C14.9022 19.1018 14.9514 18.696 14.9996 18.2901C15.021 18.11 15.0424 17.9298 15.0638 17.7497C15.0665 17.7267 15.0693 17.7036 15.0721 17.6799C15.1889 16.6975 15.315 15.7164 15.4425 14.7355C15.4499 14.6784 15.4573 14.6213 15.4648 14.5642C15.4954 14.3281 15.5262 14.0921 15.557 13.856C15.5635 13.8062 15.57 13.7563 15.5765 13.7064C15.6158 13.4047 15.6554 13.1031 15.6979 12.8018C15.7007 12.7813 15.7036 12.7608 15.7066 12.7397C15.7706 12.2916 15.9236 11.8899 16.2807 11.608C16.5563 11.4075 16.8842 11.3396 17.2155 11.3296C17.2362 11.3289 17.2568 11.3282 17.2781 11.3275C17.5085 11.3201 17.7389 11.3196 17.9694 11.3198Z" fill="white"/>
<path d="M33.0598 14.12C33.0849 14.12 33.1101 14.1201 33.1352 14.1201C33.2028 14.1203 33.2704 14.1206 33.3379 14.121C33.3804 14.1212 33.4228 14.1214 33.4652 14.1216C33.5986 14.1222 33.732 14.123 33.8653 14.1238C34.0182 14.1248 34.171 14.1254 34.3238 14.1258C34.4427 14.1261 34.5616 14.1267 34.6806 14.1276C34.7512 14.128 34.8219 14.1284 34.8926 14.1285C35.4388 14.1291 35.906 14.1872 36.3144 14.6014C36.5145 14.8131 36.6368 15.0762 36.7703 15.3355C36.8282 15.4478 36.8884 15.5586 36.9492 15.6692C37.0443 15.8426 37.1356 16.018 37.2258 16.1942C37.3008 16.3409 37.378 16.486 37.4579 16.6299C38.4101 18.3523 38.4101 18.3523 38.4375 19.3418C38.4378 19.3552 38.4382 19.3686 38.4386 19.3824C38.4494 19.7669 38.4484 20.1515 38.448 20.5361C38.4479 20.5987 38.4479 20.6613 38.4479 20.7238C38.4476 21.3074 38.4441 21.8908 38.4371 22.4743C38.436 22.5622 38.435 22.6502 38.434 22.7381C38.4336 22.7724 38.4332 22.8066 38.4328 22.8409C38.4313 22.9707 38.4298 23.1006 38.4283 23.2304C38.4277 23.2902 38.427 23.35 38.4262 23.4097C38.4244 23.5666 38.4229 23.7234 38.422 23.8802C38.4217 23.9252 38.4213 23.9702 38.4207 24.0152C38.42 24.0755 38.4197 24.1357 38.4195 24.1959C38.4192 24.2129 38.4188 24.2298 38.4185 24.2473C38.419 24.3894 38.4539 24.5173 38.5396 24.6299C38.6155 24.6934 38.6953 24.7501 38.7756 24.8073C39.1176 25.0531 39.351 25.3712 39.4286 25.8031C39.4669 26.0869 39.4496 26.383 39.3623 26.6549C39.3584 26.6673 39.3544 26.6797 39.3504 26.6925C39.2273 27.0691 38.9889 27.375 38.6507 27.5644C38.3989 27.6884 38.0323 27.775 37.7581 27.6752C37.5685 27.576 37.4743 27.4331 37.3829 27.2415C37.252 26.9694 37.0821 26.7107 36.8873 26.4835C36.8636 26.4555 36.8636 26.4555 36.8395 26.4269C36.321 25.8208 35.5986 25.446 34.8156 25.3978C33.9895 25.3633 33.2095 25.5496 32.5606 26.1025C32.5496 26.1118 32.5385 26.121 32.5271 26.1306C32.1275 26.4657 31.8204 26.8916 31.566 27.3525C31.4645 27.5284 31.3242 27.6289 31.1364 27.6942C31.0747 27.7063 31.0134 27.7052 30.9509 27.705C30.929 27.7051 30.929 27.7051 30.9067 27.7052C30.8576 27.7053 30.8084 27.7052 30.7593 27.7052C30.7238 27.7053 30.6883 27.7053 30.6528 27.7054C30.5551 27.7055 30.4574 27.7056 30.3597 27.7056C30.2544 27.7056 30.149 27.7058 30.0437 27.7059C29.8134 27.7062 29.583 27.7063 29.3526 27.7064C29.2088 27.7064 29.065 27.7065 28.9212 27.7066C28.5231 27.7068 28.1251 27.707 27.727 27.7071C27.7013 27.7071 27.6755 27.7071 27.6498 27.7071C27.624 27.7071 27.5982 27.7071 27.5724 27.7071C27.5206 27.7071 27.4688 27.7071 27.4171 27.7071C27.4042 27.7071 27.3914 27.7071 27.3782 27.7071C26.962 27.7072 26.5459 27.7075 26.1297 27.7079C25.6897 27.7084 25.2497 27.7087 24.8097 27.7087C24.5699 27.7087 24.33 27.7088 24.0902 27.7092C23.886 27.7095 23.6817 27.7096 23.4775 27.7094C23.3733 27.7093 23.2691 27.7093 23.1649 27.7096C23.0695 27.7099 22.974 27.7098 22.8786 27.7096C22.8441 27.7096 22.8096 27.7096 22.7751 27.7098C22.359 27.7117 22.359 27.7117 22.2126 27.5906C22.2013 27.5816 22.19 27.5727 22.1783 27.5634C22.109 27.4913 22.0786 27.403 22.0446 27.3095C21.9036 26.9215 21.7073 26.5944 21.4323 26.293C21.4159 26.2748 21.3995 26.2565 21.3827 26.2377C20.8844 25.6936 20.1505 25.3899 19.434 25.3597C19.4159 25.3589 19.3978 25.3581 19.3792 25.3573C18.5656 25.3401 17.7701 25.6621 17.1606 26.2168C17.1461 26.2298 17.1317 26.2428 17.1167 26.2561C16.9157 26.4396 16.7311 26.6334 16.5689 26.8545C16.4839 26.97 16.3919 27.0796 16.299 27.1883C16.2866 27.2027 16.2742 27.2172 16.2615 27.2322C16.0125 27.5068 15.6394 27.7265 15.2723 27.7406C15.1456 27.7437 15.02 27.7461 14.8939 27.731C14.7997 27.7209 14.7069 27.7198 14.6122 27.7211C14.5775 27.7213 14.5427 27.7215 14.508 27.7218C14.4543 27.7222 14.4007 27.7228 14.347 27.7234C13.8836 27.7286 13.4547 27.7008 13.0989 27.3533C12.8253 27.0446 12.7659 26.6757 12.7765 26.2683C12.7973 25.8265 13.0084 25.4319 13.3106 25.1311C13.6845 24.7898 14.1305 24.687 14.6155 24.6878C14.6491 24.6878 14.6826 24.6877 14.7162 24.6875C14.808 24.6873 14.8998 24.6873 14.9917 24.6873C15.091 24.6872 15.1903 24.687 15.2896 24.6868C15.462 24.6864 15.6345 24.6862 15.8069 24.686C16.0586 24.6858 16.3103 24.6854 16.562 24.685C16.9736 24.6842 17.3852 24.6836 17.7968 24.6831C17.8217 24.683 17.8466 24.683 17.8714 24.683C17.8838 24.6829 17.8961 24.6829 17.9088 24.6829C17.971 24.6828 18.0333 24.6828 18.0955 24.6827C18.114 24.6827 18.114 24.6827 18.1329 24.6826C18.916 24.6817 19.6992 24.6804 20.4824 24.679C20.6224 24.6788 20.7624 24.6785 20.9025 24.6783C22.0337 24.6765 23.1648 24.674 24.296 24.6615C24.3147 24.6613 24.3335 24.6611 24.3528 24.6609C24.3712 24.6606 24.3896 24.6604 24.4086 24.6602C24.4358 24.6599 24.4358 24.6599 24.4635 24.6596C24.4991 24.6592 24.5347 24.6588 24.5703 24.6584C25.062 24.653 25.5537 24.6529 26.0454 24.6525C26.067 24.6525 26.0885 24.6525 26.1107 24.6525C26.1746 24.6524 26.2385 24.6524 26.3023 24.6524C26.3212 24.6524 26.34 24.6524 26.3595 24.6524C26.747 24.6522 27.1345 24.6564 27.522 24.6639C27.5532 24.6645 27.5532 24.6645 27.585 24.6652C27.8182 24.6698 28.0513 24.6758 28.2844 24.6847C28.9427 24.7085 29.6168 24.73 30.2323 24.4454C30.2446 24.4397 30.2569 24.4341 30.2696 24.4282C30.8388 24.1605 31.2224 23.6745 31.44 23.0765C31.6224 22.5517 31.6644 22.0075 31.687 21.4546C31.6898 21.3866 31.6927 21.3185 31.6956 21.2504C31.7024 21.0916 31.709 20.9328 31.7155 20.7741C31.7184 20.7045 31.7213 20.635 31.7242 20.5654C31.737 20.2567 31.7495 19.948 31.762 19.6392C31.7707 19.4237 31.7795 19.2082 31.7883 18.9927C31.7889 18.9768 31.7896 18.9609 31.7902 18.9445C31.7955 18.8146 31.8009 18.6847 31.8062 18.5548C31.8109 18.4399 31.8156 18.325 31.8202 18.2101C31.8209 18.1938 31.8216 18.1775 31.8223 18.1606C31.8332 17.8935 31.844 17.6264 31.8547 17.3593C31.8658 17.082 31.8771 16.8048 31.8886 16.5275C31.8956 16.358 31.9024 16.1884 31.9091 16.0189C31.9137 15.9031 31.9185 15.7874 31.9233 15.6716C31.9261 15.6052 31.9288 15.5388 31.9314 15.4724C31.9404 15.2388 31.9504 15.0059 31.9802 14.774C31.9821 14.7585 31.984 14.7429 31.986 14.7269C32.0101 14.56 32.0769 14.3707 32.2104 14.2656C32.4634 14.1063 32.7742 14.1184 33.0598 14.12ZM33.459 15.1311C33.4462 15.1338 33.4335 15.1364 33.4204 15.1391C33.2414 15.1786 33.0941 15.2486 32.9743 15.3954C32.8523 15.6489 32.8498 15.9422 32.839 16.2206C32.8379 16.2475 32.8367 16.2743 32.8356 16.3012C32.8326 16.3713 32.8298 16.4413 32.827 16.5114C32.8248 16.5671 32.8224 16.6228 32.8201 16.6785C32.8133 16.8383 32.8067 16.998 32.8008 17.1578C32.7995 17.1933 32.7981 17.2288 32.7967 17.2643C32.7815 17.6426 32.7781 18.02 32.7788 18.3985C32.7789 18.4698 32.7789 18.5411 32.7789 18.6124C32.779 18.8191 32.7792 19.0257 32.7795 19.2323C32.7799 19.6955 32.7802 20.1587 32.7806 20.6359C34.3173 20.6359 35.854 20.6359 37.4373 20.6359C37.4842 20.1446 37.4842 20.1446 37.4995 19.6542C37.4992 19.6086 37.4995 19.563 37.4998 19.5173C37.5002 19.2375 37.4691 18.9573 37.388 18.6894C37.381 18.6658 37.381 18.6658 37.3737 18.6416C37.2828 18.3498 37.1233 18.0936 36.9728 17.8318C36.7644 17.4691 36.5733 17.0996 36.4267 16.7049C36.1918 16.0743 35.8 15.5433 35.1995 15.2539C35.1099 15.2129 35.0186 15.1815 34.9245 15.1537C34.912 15.15 34.8994 15.1463 34.8865 15.1425C34.6575 15.0794 34.4277 15.0668 34.1923 15.068C34.1783 15.068 34.1643 15.0681 34.1499 15.0681C33.9164 15.069 33.6883 15.0823 33.459 15.1311Z" fill="white"/>
<path d="M35.8447 26.896C35.862 26.911 35.8793 26.926 35.8971 26.9415C35.9238 26.9643 35.9238 26.9643 35.9511 26.9875C36.1956 27.207 36.3745 27.4821 36.5204 27.7796C36.5268 27.7923 36.5332 27.8051 36.5398 27.8182C36.8595 28.4605 36.9192 29.1878 36.7154 29.8791C36.4899 30.5896 36.05 31.2222 35.4021 31.5701C34.849 31.8428 34.2129 31.8816 33.6338 31.6755C33.0356 31.4491 32.6012 30.9519 32.3371 30.364C32.0318 29.6518 32.0525 28.8354 32.3163 28.1129C32.4585 27.7626 32.6385 27.4659 32.8904 27.1891C32.9043 27.1734 32.9182 27.1578 32.9325 27.1416C33.6661 26.3421 35.0008 26.1991 35.8447 26.896Z" fill="white"/>
<path d="M20.4783 26.9027C20.541 26.9582 20.6017 27.0155 20.6616 27.0742C20.6727 27.0844 20.6837 27.0947 20.6951 27.1053C21.0452 27.4435 21.2273 27.9627 21.285 28.4456C21.287 28.462 21.289 28.4784 21.2911 28.4954C21.3721 29.2627 21.1474 30.0921 20.6868 30.6989C20.2434 31.2705 19.6547 31.7015 18.9383 31.798C18.8481 31.8036 18.7582 31.8043 18.6679 31.8039C18.6557 31.8039 18.6435 31.8039 18.631 31.8038C18.4514 31.803 18.2861 31.7948 18.1133 31.7408C18.091 31.7343 18.0686 31.7279 18.0456 31.7212C17.5453 31.5634 17.1122 31.1918 16.8639 30.7139C16.514 30.0186 16.483 29.2316 16.707 28.488C16.8514 28.0397 17.0999 27.6395 17.4166 27.3027C17.4322 27.2854 17.4477 27.2681 17.4637 27.2502C18.234 26.4118 19.5705 26.1289 20.4783 26.9027Z" fill="white"/>
<path d="M6.45329 18.1381C6.48049 18.1381 6.50768 18.138 6.53488 18.138C6.60903 18.1379 6.68319 18.1379 6.75734 18.1379C6.83754 18.1379 6.91773 18.1378 6.99793 18.1377C7.1548 18.1375 7.31167 18.1375 7.46854 18.1375C7.59607 18.1375 7.7236 18.1374 7.85113 18.1374C8.21302 18.1372 8.57491 18.1371 8.9368 18.1371C8.95629 18.1371 8.97577 18.1371 8.99584 18.1371C9.0251 18.1371 9.0251 18.1371 9.05495 18.1371C9.37128 18.1371 9.6876 18.1369 10.0039 18.1367C10.329 18.1364 10.6542 18.1363 10.9793 18.1363C11.1617 18.1363 11.3441 18.1362 11.5265 18.136C11.6817 18.1359 11.837 18.1358 11.9922 18.136C12.0714 18.136 12.1505 18.136 12.2297 18.1359C12.3022 18.1357 12.3747 18.1357 12.4473 18.1359C12.4734 18.1359 12.4996 18.1359 12.5257 18.1358C12.7791 18.1348 13.0209 18.1499 13.216 18.3359C13.3416 18.4771 13.3706 18.648 13.3676 18.8345C13.3583 19.0067 13.3026 19.1541 13.1862 19.2802C13.0072 19.4341 12.7896 19.4471 12.5668 19.4454C12.5386 19.4455 12.5103 19.4456 12.482 19.4458C12.4049 19.446 12.3278 19.4458 12.2507 19.4456C12.1673 19.4454 12.0839 19.4456 12.0005 19.4458C11.8374 19.446 11.6743 19.4459 11.5112 19.4456C11.3211 19.4453 11.1311 19.4453 10.941 19.4454C10.6018 19.4455 10.2627 19.4452 9.92349 19.4448C9.59457 19.4443 9.26565 19.4442 8.93673 19.4444C8.57827 19.4446 8.21982 19.4446 7.86137 19.4444C7.82313 19.4443 7.7849 19.4443 7.74666 19.4443C7.72785 19.4443 7.70904 19.4442 7.68966 19.4442C7.55725 19.4441 7.42483 19.4442 7.29242 19.4443C7.13103 19.4444 6.96964 19.4442 6.80825 19.4439C6.72595 19.4437 6.64365 19.4436 6.56134 19.4437C6.48594 19.4439 6.41054 19.4437 6.33513 19.4434C6.30792 19.4433 6.28071 19.4433 6.25349 19.4435C6.02412 19.4444 5.82889 19.4172 5.65239 19.2551C5.52214 19.1137 5.48892 18.9392 5.49133 18.7487C5.49805 18.5898 5.54069 18.4407 5.64702 18.3229C5.88616 18.1264 6.16415 18.1377 6.45329 18.1381Z" fill="white"/>
<path d="M7.06547 22.1574C7.13937 22.1574 7.21326 22.1574 7.28716 22.1574C7.29958 22.1574 7.312 22.1574 7.32479 22.1574C7.35006 22.1573 7.37532 22.1573 7.40059 22.1573C7.63571 22.1573 7.87083 22.1573 8.10596 22.1574C8.30531 22.1575 8.50467 22.1575 8.70403 22.1574C8.93802 22.1573 9.17202 22.1573 9.40601 22.1573C9.43126 22.1574 9.45651 22.1574 9.48177 22.1574C9.49418 22.1574 9.50659 22.1574 9.51937 22.1574C9.60451 22.1574 9.68966 22.1574 9.7748 22.1573C10.2567 22.1571 10.7385 22.1588 11.2204 22.1684C11.2395 22.1688 11.2586 22.1691 11.2782 22.1695C11.4641 22.1732 11.6499 22.1782 11.8357 22.187C11.8567 22.1879 11.8567 22.1879 11.8782 22.1887C12.0335 22.1969 12.1831 22.2437 12.3024 22.3504C12.4321 22.5173 12.4688 22.6904 12.4674 22.9028C12.4469 23.0748 12.3928 23.2033 12.2656 23.3164C12.0384 23.4891 11.7475 23.4772 11.4778 23.4766C11.457 23.4766 11.4363 23.4767 11.4149 23.4767C11.346 23.4768 11.2771 23.4767 11.2082 23.4767C11.1585 23.4767 11.1087 23.4767 11.059 23.4768C10.9381 23.4768 10.8172 23.4768 10.6963 23.4768C10.5974 23.4767 10.4985 23.4767 10.3996 23.4767C10.3783 23.4768 10.3783 23.4768 10.3567 23.4768C10.3278 23.4768 10.299 23.4768 10.2702 23.4768C9.99999 23.4768 9.72975 23.4768 9.45952 23.4767C9.23049 23.4766 9.00146 23.4766 8.77243 23.4767C8.50456 23.4768 8.23669 23.4768 7.96883 23.4768C7.93983 23.4768 7.91083 23.4768 7.88184 23.4767C7.86759 23.4767 7.85333 23.4767 7.83865 23.4767C7.74101 23.4767 7.64337 23.4768 7.54574 23.4768C7.19515 23.4769 6.84457 23.4763 6.49399 23.4744C6.45302 23.4742 6.41206 23.474 6.3711 23.4738C6.21686 23.4731 6.06263 23.4721 5.9084 23.4705C5.84224 23.4698 5.77607 23.4692 5.7099 23.4689C4.95262 23.4653 4.95262 23.4653 4.71467 23.2171C4.61794 23.0914 4.56755 22.9118 4.57738 22.7511C4.60986 22.562 4.76507 22.4216 4.90846 22.313C5.09649 22.1908 5.28551 22.188 5.50071 22.179C5.51915 22.1782 5.53758 22.1774 5.55658 22.1765C6.05942 22.1555 6.56231 22.1571 7.06547 22.1574Z" fill="white"/>
<path d="M7.30707 14.4623C7.33429 14.4623 7.36151 14.4622 7.38873 14.4622C7.4633 14.4621 7.53786 14.4621 7.61243 14.4621C7.69293 14.4621 7.77344 14.462 7.85395 14.4619C8.01159 14.4617 8.16922 14.4617 8.32686 14.4617C8.455 14.4617 8.58314 14.4616 8.71128 14.4616C9.07472 14.4614 9.43815 14.4613 9.80158 14.4613C9.82116 14.4613 9.84075 14.4613 9.86092 14.4613C9.88053 14.4613 9.90014 14.4613 9.92034 14.4613C10.2382 14.4613 10.556 14.4612 10.8738 14.4609C11.2003 14.4606 11.5267 14.4605 11.8532 14.4605C12.0364 14.4605 12.2197 14.4605 12.4029 14.4602C12.5589 14.4601 12.7149 14.46 12.8709 14.4602C12.9504 14.4602 13.03 14.4602 13.1095 14.4601C13.1824 14.4599 13.2553 14.4599 13.3282 14.4601C13.3545 14.4601 13.3808 14.4601 13.4071 14.46C13.6701 14.459 13.9042 14.484 14.1035 14.6771C14.2234 14.8113 14.2533 14.9712 14.2496 15.1495C14.2375 15.3058 14.1891 15.4397 14.0801 15.5506C13.8787 15.71 13.6666 15.7314 13.4211 15.7349C13.3901 15.7356 13.3591 15.7362 13.3282 15.7368C12.8529 15.7458 12.3775 15.7438 11.9022 15.7436C11.8005 15.7436 11.6988 15.7436 11.597 15.7436C11.575 15.7436 11.575 15.7436 11.5526 15.7436C11.5227 15.7436 11.4929 15.7436 11.4631 15.7436C11.1856 15.7437 10.9082 15.7436 10.6308 15.7435C10.3945 15.7434 10.1581 15.7434 9.92181 15.7435C9.64506 15.7436 9.3683 15.7437 9.09155 15.7436C9.06186 15.7436 9.03217 15.7436 9.00248 15.7436C8.98788 15.7436 8.97329 15.7436 8.95825 15.7436C8.85703 15.7436 8.7558 15.7436 8.65457 15.7436C7.61737 15.7441 7.61737 15.7441 7.25626 15.7359C7.22944 15.7353 7.20263 15.7347 7.17581 15.7343C6.94359 15.7303 6.70861 15.6969 6.53136 15.528C6.40709 15.3912 6.37295 15.2232 6.37509 15.0407C6.38746 14.8888 6.44286 14.7601 6.5441 14.65C6.76124 14.4613 7.03938 14.462 7.30707 14.4623Z" fill="white"/>
</g>
<defs>
<clipPath id="clip0_3515_651">
<rect width="35.2" height="30.8" fill="white" transform="translate(4.40039 6.16016)"/>
</clipPath>
</defs>
</svg>
