<svg width="44" height="44" viewBox="0 0 44 44" fill="none" xmlns="http://www.w3.org/2000/svg">
<rect width="44" height="44" rx="4" fill="#4FBF8B"/>
<path d="M32.8604 15.7001C32.8604 15.7397 32.8604 15.7793 32.8604 15.8201C32.9327 15.8275 32.9327 15.8275 33.0066 15.8351C33.4514 15.9287 33.8506 16.1628 34.2554 16.3639C34.2965 16.3843 34.3376 16.4047 34.38 16.4258C34.4585 16.4651 34.5366 16.5051 34.6144 16.5458C34.7072 16.5933 34.8022 16.6364 34.8975 16.6786C35.0204 16.7801 35.0204 16.7801 35.056 16.9639C34.9979 19.4022 34.4859 21.939 33.1343 24.0099C33.0329 24.1589 33.0329 24.1589 32.9804 24.3401C32.9408 24.3401 32.9012 24.3401 32.8604 24.3401C32.838 24.4198 32.838 24.4198 32.8151 24.5011C32.7365 24.7104 32.6486 24.8347 32.5041 25.0039C32.4553 25.0613 32.4065 25.1188 32.3562 25.178C32.3048 25.2381 32.2533 25.2982 32.2004 25.3601C32.152 25.4196 32.1037 25.4791 32.0539 25.5403C31.4256 26.3113 30.7219 27.0489 29.9204 27.6401C29.8389 27.704 29.8389 27.704 29.7558 27.7693C29.0368 28.3271 28.2605 28.7536 27.4437 29.1491C27.3099 29.2151 27.1793 29.2868 27.0479 29.3576C26.3748 29.6908 25.6311 29.8753 24.9066 30.0589C24.8167 30.0818 24.8167 30.0818 24.725 30.1051C24.3767 30.1908 24.0376 30.2504 23.6804 30.2801C23.6255 30.2852 23.5707 30.2904 23.5143 30.2957C21.7654 30.4573 20.1312 30.405 18.4229 29.9576C18.3194 29.9314 18.3194 29.9314 18.2138 29.9046C17.8419 29.8081 17.488 29.6973 17.1351 29.545C17.0223 29.4928 17.0223 29.4928 16.9004 29.5001C16.1873 30.848 15.5163 32.187 15.0404 33.6401C14.5003 33.4388 13.9929 33.1818 13.4804 32.9201C13.4408 32.9003 13.4012 32.8805 13.3604 32.8601C13.4136 32.5881 13.5508 32.3706 13.685 32.131C13.7407 32.031 13.7955 31.9305 13.8476 31.8286C14.0274 31.4815 14.2542 31.1756 14.4873 30.8632C14.6578 30.6343 14.8208 30.4031 14.9766 30.1639C15.2243 29.7865 15.4952 29.4286 15.7676 29.0691C15.9092 28.8822 16.0474 28.6932 16.1841 28.5026C16.8642 27.5645 17.6 26.6801 18.4292 25.8704C18.6028 25.7005 18.7715 25.532 18.9254 25.3439C19.0364 25.2092 19.1409 25.1 19.2741 24.9889C19.4268 24.8592 19.5765 24.7275 19.7229 24.5909C19.7547 24.5613 19.7865 24.5317 19.8192 24.5012C19.8822 24.4423 19.945 24.3833 20.0076 24.324C20.1625 24.1798 20.3037 24.0611 20.5004 23.9801C20.5004 23.9405 20.5004 23.9009 20.5004 23.8601C20.632 23.7552 20.7642 23.657 20.9016 23.5601C20.9842 23.5008 21.0668 23.4414 21.1493 23.382C21.1913 23.3518 21.2332 23.3217 21.2764 23.2906C21.5262 23.1083 21.7687 22.9165 22.0121 22.7257C22.4215 22.4201 22.4215 22.4201 22.6004 22.4201C22.6004 22.3805 22.6004 22.3409 22.6004 22.3001C22.6991 22.2271 22.6991 22.2271 22.8375 22.1457C22.888 22.1157 22.9385 22.0857 22.9905 22.0549C23.0449 22.0232 23.0993 21.9915 23.1554 21.9589C23.2103 21.9264 23.2652 21.894 23.3218 21.8606C23.4315 21.796 23.5412 21.7316 23.6511 21.6674C23.7742 21.5954 23.8969 21.5229 24.0193 21.4498C24.3788 21.2365 24.7441 21.0422 25.1204 20.8601C23.8053 21.2861 22.5695 21.7783 21.3748 22.4768C21.2018 22.5779 21.0257 22.672 20.8489 22.7663C20.487 22.9631 20.1447 23.1843 19.8029 23.4139C19.7403 23.4558 19.6777 23.4976 19.6132 23.5408C19.1109 23.8799 18.6269 24.2378 18.1513 24.613C18.0107 24.7234 17.8685 24.8317 17.7263 24.94C17.1615 25.3708 16.6175 25.8178 16.0948 26.2988C15.9204 26.4584 15.7423 26.6132 15.5635 26.7678C15.4673 26.8539 15.3773 26.9433 15.2879 27.0364C15.1604 27.1601 15.1604 27.1601 15.0404 27.1601C15.1793 25.671 15.4743 24.3417 16.0604 22.9601C16.0771 22.9198 16.0939 22.8795 16.1112 22.8379C16.3214 22.334 16.5461 21.8615 16.8404 21.4001C16.898 21.3014 16.9555 21.2027 17.0129 21.1039C17.6971 19.9688 18.6483 18.8943 19.6604 18.0401C19.713 17.9956 19.7657 17.9512 19.82 17.9053C19.9604 17.8001 19.9604 17.8001 20.0804 17.8001C20.0804 17.7605 20.0804 17.7209 20.0804 17.6801C20.1587 17.625 20.2378 17.5708 20.3189 17.5198C20.4681 17.4219 20.6089 17.3147 20.7516 17.2076C21.0239 17.0083 21.3009 16.8421 21.5998 16.6861C21.7558 16.6025 21.9035 16.5112 22.0529 16.4164C22.3963 16.2071 22.764 16.0778 23.1404 15.9401C23.2097 15.9104 23.279 15.8807 23.3504 15.8501C23.4197 15.8204 23.489 15.7907 23.5604 15.7601C23.6304 15.728 23.6304 15.728 23.7019 15.6952C26.5144 14.498 30.0207 14.7337 32.8604 15.7001Z" fill="white"/>
<path d="M11.2376 10.4C11.3285 10.3993 11.3285 10.3993 11.4211 10.3985C11.6163 10.3973 11.8114 10.3973 12.0066 10.3977C12.1062 10.3977 12.1062 10.3977 12.2078 10.3978C13.1709 10.4 14.102 10.4216 15.0404 10.6602C15.0908 10.6727 15.1412 10.6852 15.1931 10.6982C15.548 10.7895 15.8944 10.8998 16.2404 11.0202C16.2988 11.0404 16.3572 11.0606 16.4174 11.0814C17.3713 11.4156 18.2369 11.8027 19.0831 12.3573C19.1913 12.4281 19.3006 12.4972 19.4108 12.5649C19.7272 12.7598 20.0106 12.9617 20.281 13.2172C20.3842 13.3136 20.3842 13.3136 20.5604 13.3602C20.6617 13.4588 20.7616 13.559 20.8604 13.6602C20.9439 13.7251 20.9439 13.7251 21.0291 13.7914C21.0724 13.8273 21.1157 13.8632 21.1604 13.9002C21.1604 13.9398 21.1604 13.9794 21.1604 14.0202C21.2 14.0202 21.2396 14.0202 21.2804 14.0202C21.2804 14.0598 21.2804 14.0994 21.2804 14.1402C21.3398 14.16 21.3992 14.1798 21.4604 14.2002C21.5508 14.2899 21.5508 14.2899 21.6479 14.4064C21.821 14.6107 21.9971 14.8114 22.1766 15.0102C22.2461 15.0872 22.2461 15.0872 22.317 15.1658C22.3682 15.2224 22.3682 15.2224 22.4204 15.2802C22.3604 15.4602 22.3604 15.4602 22.2308 15.5375C22.1733 15.564 22.1158 15.5904 22.0566 15.6177C21.2401 16.0114 20.4971 16.4648 19.7804 17.0202C19.7248 17.0629 19.6692 17.1057 19.6119 17.1498C19.0568 17.5853 18.5473 18.063 18.0578 18.5703C17.9741 18.6557 17.8875 18.7382 17.8004 18.8202C17.7608 18.8202 17.7212 18.8202 17.6804 18.8202C17.5997 18.7006 17.5198 18.5805 17.4404 18.4602C17.3419 18.3587 17.2416 18.259 17.1404 18.1602C17.0684 18.0877 16.9965 18.0151 16.9247 17.9424C16.8466 17.8638 16.7685 17.7851 16.6904 17.7064C16.6513 17.6669 16.6123 17.6273 16.572 17.5865C16.3702 17.3837 16.1682 17.1942 15.9404 17.0202C15.8764 16.9666 15.8127 16.9129 15.7491 16.8589C15.5957 16.7222 15.5957 16.7222 15.4604 16.6602C15.4604 16.6206 15.4604 16.581 15.4604 16.5402C15.3963 16.5179 15.3963 16.5179 15.331 16.4952C15.0801 16.3849 14.8803 16.2183 14.6635 16.0527C14.5114 15.9478 14.3741 15.8806 14.2004 15.8202C14.2388 15.8615 14.2773 15.9029 14.3169 15.9456C15.1186 16.8166 15.1186 16.8166 15.3404 17.2602C15.4143 17.3722 15.4894 17.4833 15.5654 17.5939C15.7604 17.8837 15.9355 18.1771 16.0983 18.4859C16.1497 18.5824 16.2028 18.678 16.2587 18.7719C16.478 19.1412 16.815 19.7177 16.7647 20.1575C16.7204 20.2602 16.7204 20.2602 16.6191 20.3839C16.4416 20.6094 16.315 20.8503 16.1818 21.104C16.109 21.2417 16.0349 21.3788 15.961 21.5159C15.6562 22.0845 15.3595 22.6448 15.1604 23.2602C15.1421 23.316 15.1237 23.3717 15.1049 23.4292C14.8515 24.2067 14.6247 24.9714 14.5004 25.7802C14.477 25.9102 14.4533 26.0402 14.4291 26.1702C14.4128 26.2602 14.3966 26.3502 14.3804 26.4402C13.937 26.4402 13.5336 25.9147 13.225 25.6244C13.0663 25.4751 12.9067 25.3316 12.7365 25.1954C12.685 25.1508 12.6334 25.1061 12.5804 25.0602C12.5804 25.0206 12.5804 24.981 12.5804 24.9402C12.5408 24.9402 12.5012 24.9402 12.4604 24.9402C12.3647 24.8342 12.3647 24.8342 12.2504 24.6852C12.068 24.45 11.8794 24.2235 11.6841 23.9989C11.3785 23.6334 11.1385 23.2445 10.9038 22.8309C10.8444 22.7272 10.7828 22.6249 10.7211 22.5226C10.4663 22.0953 10.2491 21.657 10.0416 21.2052C10.0038 21.1232 10.0038 21.1232 9.96511 21.0396C9.80588 20.6861 9.68507 20.3331 9.58037 19.9602C9.54046 19.8351 9.50047 19.7101 9.46037 19.5852C9.3346 19.1739 9.23908 18.7629 9.16037 18.3402C9.15208 18.2998 9.14378 18.2594 9.13524 18.2179C8.97992 17.4477 8.96269 16.6816 8.96162 15.8989C8.96141 15.8497 8.9612 15.8005 8.96099 15.7498C8.95862 14.7473 9.04061 13.7853 9.29537 12.8127C9.3138 12.7408 9.33224 12.6688 9.35123 12.5948C9.4934 12.0533 9.66055 11.535 9.88037 11.0202C9.89979 10.9674 9.9192 10.9147 9.9392 10.8603C9.99287 10.7277 9.99287 10.7277 10.1204 10.5402C10.493 10.414 10.8468 10.401 11.2376 10.4Z" fill="white"/>
<path d="M19.5997 18.0996C19.5997 18.2796 19.5997 18.2796 19.4809 18.4097C19.4206 18.4664 19.3602 18.523 19.2997 18.5796C19.2197 18.6591 19.14 18.7389 19.0604 18.8189C18.8202 19.0591 18.58 19.2994 18.3397 19.5396C18.3001 19.5198 18.2605 19.5 18.2197 19.4796C18.3593 19.328 18.4995 19.1769 18.6397 19.0259C18.6786 18.9836 18.7175 18.9413 18.7576 18.8978C19.0233 18.6123 19.3012 18.3505 19.5997 18.0996Z" fill="white"/>
<path d="M19.2996 25C19.2996 25.18 19.2996 25.18 19.2005 25.2996C19.1326 25.366 19.1326 25.366 19.0634 25.4338C19.0146 25.482 18.9659 25.5301 18.9157 25.5797C18.8642 25.6297 18.8127 25.6797 18.7596 25.7312C18.6823 25.8073 18.6823 25.8073 18.6035 25.8849C18.4759 26.0103 18.348 26.1353 18.2196 26.26C18.18 26.2402 18.1404 26.2204 18.0996 26.2C18.1438 26.1565 18.1879 26.1131 18.2334 26.0683C18.599 25.7124 18.599 25.7124 18.9359 25.33C19.0484 25.1936 19.1532 25.0976 19.2996 25Z" fill="white"/>
<path d="M20.2604 24.0996C20.2604 24.2796 20.2604 24.2796 20.1507 24.409C20.1027 24.4554 20.0548 24.5018 20.0054 24.5496C19.9344 24.6192 19.9344 24.6192 19.8619 24.6902C19.7392 24.8024 19.6154 24.903 19.4804 24.9996C19.4408 24.9798 19.4012 24.96 19.3604 24.9396C19.6574 24.6624 19.9544 24.3852 20.2604 24.0996Z" fill="white"/>
</svg>
