<svg width="132" height="30" viewBox="0 0 132 30" fill="none" xmlns="http://www.w3.org/2000/svg">
<path d="M32.296 24V12.336H35.968V24H32.296ZM35.968 17.592L34.432 16.392C34.736 15.032 35.248 13.976 35.968 13.224C36.688 12.472 37.688 12.096 38.968 12.096C39.528 12.096 40.016 12.184 40.432 12.36C40.864 12.52 41.24 12.776 41.56 13.128L39.376 15.888C39.216 15.712 39.016 15.576 38.776 15.48C38.536 15.384 38.264 15.336 37.96 15.336C37.352 15.336 36.864 15.528 36.496 15.912C36.144 16.28 35.968 16.84 35.968 17.592ZM47.9701 24.264C46.7061 24.264 45.5781 24.008 44.5861 23.496C43.6101 22.968 42.8421 22.24 42.2821 21.312C41.7221 20.384 41.4421 19.336 41.4421 18.168C41.4421 17 41.7141 15.96 42.2581 15.048C42.8181 14.12 43.5701 13.392 44.5141 12.864C45.4581 12.336 46.5221 12.072 47.7061 12.072C48.8581 12.072 49.8741 12.32 50.7541 12.816C51.6341 13.312 52.3221 14 52.8181 14.88C53.3301 15.76 53.5861 16.768 53.5861 17.904C53.5861 18.112 53.5701 18.336 53.5381 18.576C53.5221 18.8 53.4821 19.064 53.4181 19.368L43.3621 19.392V16.872L51.8581 16.848L50.2741 17.904C50.2581 17.232 50.1541 16.68 49.9621 16.248C49.7701 15.8 49.4821 15.464 49.0981 15.24C48.7301 15 48.2741 14.88 47.7301 14.88C47.1541 14.88 46.6501 15.016 46.2181 15.288C45.8021 15.544 45.4741 15.912 45.2341 16.392C45.0101 16.872 44.8981 17.456 44.8981 18.144C44.8981 18.832 45.0181 19.424 45.2581 19.92C45.5141 20.4 45.8661 20.776 46.3141 21.048C46.7781 21.304 47.3221 21.432 47.9461 21.432C48.5221 21.432 49.0421 21.336 49.5061 21.144C49.9701 20.936 50.3781 20.632 50.7301 20.232L52.7461 22.248C52.1701 22.92 51.4741 23.424 50.6581 23.76C49.8421 24.096 48.9461 24.264 47.9701 24.264ZM61.1185 24.264C59.8545 24.264 58.7265 24.008 57.7345 23.496C56.7585 22.968 55.9905 22.24 55.4305 21.312C54.8705 20.384 54.5905 19.336 54.5905 18.168C54.5905 17 54.8625 15.96 55.4065 15.048C55.9665 14.12 56.7185 13.392 57.6625 12.864C58.6065 12.336 59.6705 12.072 60.8545 12.072C62.0065 12.072 63.0225 12.32 63.9025 12.816C64.7825 13.312 65.4705 14 65.9665 14.88C66.4785 15.76 66.7345 16.768 66.7345 17.904C66.7345 18.112 66.7185 18.336 66.6865 18.576C66.6705 18.8 66.6305 19.064 66.5665 19.368L56.5105 19.392V16.872L65.0065 16.848L63.4225 17.904C63.4065 17.232 63.3025 16.68 63.1105 16.248C62.9185 15.8 62.6305 15.464 62.2465 15.24C61.8785 15 61.4225 14.88 60.8785 14.88C60.3025 14.88 59.7985 15.016 59.3665 15.288C58.9505 15.544 58.6225 15.912 58.3825 16.392C58.1585 16.872 58.0465 17.456 58.0465 18.144C58.0465 18.832 58.1665 19.424 58.4065 19.92C58.6625 20.4 59.0145 20.776 59.4625 21.048C59.9265 21.304 60.4705 21.432 61.0945 21.432C61.6705 21.432 62.1905 21.336 62.6545 21.144C63.1185 20.936 63.5265 20.632 63.8785 20.232L65.8945 22.248C65.3185 22.92 64.6225 23.424 63.8065 23.76C62.9905 24.096 62.0945 24.264 61.1185 24.264ZM76.2109 24V17.352C76.2109 16.744 76.0189 16.256 75.6349 15.888C75.2669 15.504 74.7949 15.312 74.2189 15.312C73.8189 15.312 73.4669 15.4 73.1629 15.576C72.8589 15.736 72.6189 15.976 72.4429 16.296C72.2669 16.6 72.1789 16.952 72.1789 17.352L70.7629 16.656C70.7629 15.744 70.9629 14.944 71.3629 14.256C71.7629 13.568 72.3149 13.04 73.0189 12.672C73.7389 12.288 74.5469 12.096 75.4429 12.096C76.3069 12.096 77.0669 12.304 77.7229 12.72C78.3949 13.12 78.9229 13.656 79.3069 14.328C79.6909 15 79.8829 15.736 79.8829 16.536V24H76.2109ZM68.5069 24V12.336H72.1789V24H68.5069ZM90.6173 24.264C89.3533 24.264 88.1773 24.048 87.0893 23.616C86.0173 23.168 85.0733 22.544 84.2573 21.744C83.4573 20.944 82.8333 20.016 82.3853 18.96C81.9373 17.888 81.7133 16.736 81.7133 15.504C81.7133 14.272 81.9373 13.128 82.3853 12.072C82.8333 11 83.4573 10.072 84.2573 9.288C85.0573 8.504 85.9933 7.896 87.0653 7.464C88.1533 7.016 89.3293 6.792 90.5933 6.792C91.9373 6.792 93.1293 7.008 94.1693 7.44C95.2253 7.872 96.1453 8.464 96.9293 9.216L94.4093 11.76C93.9613 11.28 93.4173 10.904 92.7773 10.632C92.1533 10.36 91.4253 10.224 90.5933 10.224C89.8573 10.224 89.1773 10.352 88.5533 10.608C87.9453 10.848 87.4173 11.2 86.9693 11.664C86.5373 12.128 86.1933 12.688 85.9373 13.344C85.6973 14 85.5773 14.72 85.5773 15.504C85.5773 16.304 85.6973 17.032 85.9373 17.688C86.1933 18.344 86.5373 18.904 86.9693 19.368C87.4173 19.832 87.9453 20.192 88.5533 20.448C89.1773 20.704 89.8573 20.832 90.5933 20.832C91.4573 20.832 92.2093 20.696 92.8493 20.424C93.4893 20.152 94.0413 19.776 94.5053 19.296L97.0493 21.84C96.2333 22.592 95.2973 23.184 94.2413 23.616C93.2013 24.048 91.9933 24.264 90.6173 24.264ZM103.379 24.24C102.307 24.24 101.347 23.976 100.499 23.448C99.6669 22.92 99.0029 22.2 98.5069 21.288C98.0269 20.376 97.7869 19.336 97.7869 18.168C97.7869 17 98.0269 15.96 98.5069 15.048C99.0029 14.136 99.6669 13.416 100.499 12.888C101.347 12.36 102.307 12.096 103.379 12.096C104.163 12.096 104.867 12.248 105.491 12.552C106.131 12.856 106.651 13.28 107.051 13.824C107.451 14.352 107.675 14.96 107.723 15.648V20.688C107.675 21.376 107.451 21.992 107.051 22.536C106.667 23.064 106.155 23.48 105.515 23.784C104.875 24.088 104.163 24.24 103.379 24.24ZM104.123 20.928C104.907 20.928 105.539 20.672 106.019 20.16C106.499 19.632 106.739 18.968 106.739 18.168C106.739 17.624 106.627 17.144 106.403 16.728C106.195 16.312 105.891 15.992 105.491 15.768C105.107 15.528 104.659 15.408 104.147 15.408C103.635 15.408 103.179 15.528 102.779 15.768C102.395 15.992 102.083 16.312 101.843 16.728C101.619 17.144 101.507 17.624 101.507 18.168C101.507 18.696 101.619 19.168 101.843 19.584C102.067 20 102.379 20.328 102.779 20.568C103.179 20.808 103.627 20.928 104.123 20.928ZM106.595 24V20.856L107.147 18.024L106.595 15.192V12.336H110.195V24H106.595ZM112.78 24V12.336H116.452V24H112.78ZM116.452 17.592L114.916 16.392C115.22 15.032 115.732 13.976 116.452 13.224C117.172 12.472 118.172 12.096 119.452 12.096C120.012 12.096 120.5 12.184 120.916 12.36C121.348 12.52 121.724 12.776 122.044 13.128L119.86 15.888C119.7 15.712 119.5 15.576 119.26 15.48C119.02 15.384 118.748 15.336 118.444 15.336C117.836 15.336 117.348 15.528 116.98 15.912C116.628 16.28 116.452 16.84 116.452 17.592ZM124.796 24V7.512H128.468V24H124.796ZM122.156 15.456V12.336H131.108V15.456H122.156Z" fill="#2B3441"/>
<path d="M3.50614 11.7502C3.53267 11.7502 3.55921 11.7502 3.58655 11.7502C3.63231 11.7501 3.63231 11.7501 3.67898 11.75C3.72986 11.7501 3.72986 11.7501 3.78176 11.7503C3.81747 11.7503 3.85319 11.7502 3.88998 11.7502C3.98956 11.7502 4.08913 11.7503 4.18871 11.7504C4.29592 11.7506 4.40313 11.7505 4.51034 11.7505C4.69624 11.7505 4.88214 11.7506 5.06804 11.7508C5.33682 11.751 5.6056 11.7511 5.87439 11.7512C6.31042 11.7512 6.74646 11.7515 7.18249 11.7518C7.60617 11.7521 8.02985 11.7523 8.45352 11.7524C8.47962 11.7525 8.50572 11.7525 8.5326 11.7525C8.66352 11.7525 8.79443 11.7526 8.92534 11.7526C10.0121 11.7529 11.0989 11.7535 12.1857 11.7543C12.1857 11.9119 12.1333 12.0025 12.0639 12.1353C11.7206 12.8167 11.4692 13.5626 11.3331 14.3249C11.3276 14.3543 11.322 14.3837 11.3163 14.414C11.1344 15.4075 11.1463 16.4647 11.3331 17.4559C11.3378 17.4823 11.3425 17.5087 11.3474 17.536C11.5689 18.7599 12.1029 19.9181 12.8252 20.8835C12.8379 20.9006 12.8506 20.9178 12.8637 20.9354C13.1847 21.3668 13.5438 21.7676 13.9519 22.1029C13.977 22.1238 13.977 22.1238 14.0027 22.1451C14.4365 22.5033 14.8888 22.8083 15.3831 23.0587C15.4048 23.0698 15.4266 23.081 15.449 23.0924C16.4133 23.5829 17.4478 23.8239 18.5119 23.825C18.5354 23.825 18.5588 23.825 18.583 23.8251C18.9841 23.8247 19.3728 23.7956 19.768 23.7178C19.7924 23.7133 19.8168 23.7087 19.842 23.7039C20.8172 23.5171 21.7836 23.1097 22.5999 22.4984C22.6493 22.4621 22.6493 22.4621 22.6996 22.425C22.9658 22.2262 23.2112 22.0061 23.4526 21.7733C23.4693 21.7573 23.4861 21.7413 23.5033 21.7247C23.6923 21.5432 23.8692 21.3576 24.0311 21.1472C24.055 21.1184 24.0789 21.0896 24.1035 21.06C24.4 20.6994 24.6558 20.2949 24.8717 19.8726C24.8854 19.8459 24.8991 19.8192 24.9132 19.7917C24.9236 19.7713 24.9339 19.751 24.9447 19.73C24.9213 19.73 24.898 19.73 24.8739 19.7301C24.3064 19.7308 23.739 19.7313 23.1715 19.7317C22.8971 19.7319 22.6227 19.7321 22.3483 19.7325C22.1092 19.7328 21.8701 19.733 21.631 19.7331C21.5043 19.7331 21.3776 19.7332 21.251 19.7335C21.1319 19.7337 21.0128 19.7338 20.8937 19.7337C20.8498 19.7337 20.806 19.7338 20.7622 19.7339C20.7026 19.7341 20.643 19.734 20.5834 19.7339C20.55 19.734 20.5165 19.734 20.4821 19.734C20.4075 19.73 20.4075 19.73 20.377 19.697C20.374 19.6471 20.3732 19.597 20.3732 19.5469C20.3731 19.5144 20.373 19.482 20.3729 19.4486C20.373 19.4127 20.373 19.3768 20.3731 19.3398C20.373 19.3023 20.373 19.2647 20.3729 19.226C20.3728 19.1012 20.3729 18.9763 20.373 18.8515C20.373 18.7651 20.3729 18.6788 20.3729 18.5925C20.3728 18.4113 20.3729 18.2301 20.3731 18.0489C20.3732 17.8391 20.3732 17.6293 20.373 17.4196C20.3728 17.2181 20.3729 17.0167 20.373 16.8153C20.373 16.7294 20.3729 16.6435 20.3729 16.5576C20.3728 16.4378 20.3729 16.318 20.3731 16.1982C20.373 16.1623 20.373 16.1264 20.3729 16.0894C20.373 16.057 20.3731 16.0245 20.3732 15.9911C20.3732 15.9628 20.3732 15.9344 20.3732 15.9052C20.377 15.841 20.377 15.841 20.4075 15.808C20.4557 15.8048 20.5041 15.8039 20.5524 15.8039C20.5839 15.8038 20.6155 15.8037 20.648 15.8036C20.6831 15.8037 20.7181 15.8038 20.7543 15.8038C20.7912 15.8038 20.8281 15.8037 20.8662 15.8037C20.9692 15.8036 21.0722 15.8036 21.1752 15.8037C21.2861 15.8038 21.3969 15.8037 21.5078 15.8036C21.7252 15.8034 21.9426 15.8035 22.1601 15.8036C22.3367 15.8036 22.5133 15.8037 22.6899 15.8036C22.715 15.8036 22.7401 15.8036 22.7659 15.8036C22.8169 15.8036 22.8678 15.8036 22.9188 15.8036C23.3972 15.8035 23.8756 15.8036 24.354 15.8038C24.7649 15.8039 25.1758 15.8039 25.5868 15.8037C26.0634 15.8036 26.54 15.8035 27.0167 15.8036C27.0674 15.8036 27.1182 15.8036 27.169 15.8036C27.2065 15.8036 27.2065 15.8036 27.2447 15.8036C27.4212 15.8037 27.5977 15.8036 27.7742 15.8035C27.9892 15.8034 28.2041 15.8035 28.4191 15.8036C28.5288 15.8037 28.6386 15.8038 28.7484 15.8037C28.8671 15.8035 28.9859 15.8037 29.1046 15.8038C29.1397 15.8038 29.1748 15.8037 29.2109 15.8036C29.2424 15.8037 29.274 15.8038 29.3065 15.8039C29.3339 15.8039 29.3614 15.8039 29.3897 15.8039C29.4514 15.808 29.4514 15.808 29.4818 15.841C29.4908 15.989 29.4893 16.1376 29.4895 16.2859C29.4895 16.3194 29.4895 16.3194 29.4895 16.3535C29.4889 16.7924 29.4544 17.2202 29.3905 17.6537C29.3827 17.7072 29.3827 17.7072 29.3747 17.7619C29.1161 19.4815 28.5281 21.1712 27.5939 22.5973C27.5734 22.6287 27.5529 22.6602 27.5318 22.6926C27.4722 22.7825 27.4116 22.8713 27.3503 22.9598C27.3272 22.9933 27.3041 23.0267 27.2803 23.0611C26.7455 23.8288 26.1307 24.54 25.4319 25.135C25.3915 25.1702 25.3511 25.2054 25.3108 25.2406C23.7906 26.5556 21.9358 27.38 20.0135 27.6686C19.9908 27.672 19.9681 27.6755 19.9447 27.679C19.4817 27.7475 19.0213 27.7786 18.5538 27.7778C18.5321 27.7778 18.5104 27.7778 18.488 27.7777C18.0801 27.7767 17.6765 27.7561 17.271 27.7057C17.2393 27.7018 17.2076 27.6979 17.1749 27.6939C16.2027 27.5687 15.2492 27.2945 14.3477 26.8818C14.3283 26.8729 14.3089 26.8641 14.289 26.855C13.9773 26.7127 13.6731 26.5569 13.3733 26.3874C13.3525 26.3757 13.3318 26.3641 13.3104 26.3521C13.0108 26.1826 12.7262 25.9924 12.4446 25.79C12.4144 25.7684 12.3842 25.7468 12.3531 25.7245C12.1816 25.5995 12.0176 25.4682 11.8575 25.3265C11.7903 25.2673 11.7219 25.2102 11.6528 25.1536C11.5271 25.0482 11.4093 24.9351 11.2921 24.8188C11.2282 24.7562 11.1636 24.6951 11.0983 24.6343C10.9514 24.4956 10.814 24.3473 10.6765 24.1978C10.6518 24.1712 10.6271 24.1446 10.6016 24.1171C10.4534 23.9565 10.3114 23.7923 10.176 23.619C10.1602 23.5989 10.1445 23.5788 10.1283 23.558C9.74095 23.0584 9.40355 22.5281 9.08788 21.973C9.05579 21.9166 9.02332 21.8605 8.99076 21.8044C8.66037 21.2178 8.41862 20.5693 8.19666 19.9277C8.18036 19.8808 8.18036 19.8808 8.16373 19.833C7.75741 18.6447 7.54656 17.3414 7.55529 16.0758C7.55542 16.037 7.55556 15.9982 7.5557 15.9583C7.55606 15.8642 7.55655 15.7702 7.55719 15.6762C7.51908 15.6772 7.51908 15.6772 7.4802 15.6783C6.30734 15.7059 5.34424 15.4504 4.46238 14.5676C3.8385 13.8935 3.4198 12.9354 3.41016 11.9767C3.41137 11.7566 3.41137 11.7566 3.50614 11.7502Z" fill="#4FBF8B"/>
<path d="M0.159878 4.00433C0.18685 4.00424 0.213821 4.00415 0.24161 4.00406C0.286658 4.00416 0.286658 4.00416 0.332616 4.00426C0.364341 4.0042 0.396066 4.00415 0.428752 4.00409C0.536498 4.00393 0.644242 4.00401 0.751987 4.00409C0.829449 4.00403 0.906911 4.00396 0.984373 4.00387C1.15355 4.00371 1.32272 4.00365 1.4919 4.00369C1.7435 4.00374 1.99511 4.0036 2.24671 4.00343C2.72236 4.00311 3.19802 4.00301 3.67367 4.003C4.04131 4.00298 4.40895 4.00291 4.77658 4.00281C4.88233 4.00278 4.98809 4.00275 5.09384 4.00272C5.12013 4.00271 5.14642 4.0027 5.17351 4.0027C5.91364 4.00249 6.65378 4.00236 7.39392 4.00238C7.42185 4.00238 7.44978 4.00238 7.47856 4.00238C7.62015 4.00238 7.76173 4.00239 7.90331 4.00239C7.93143 4.00239 7.95955 4.00239 7.98852 4.00239C8.04538 4.00239 8.10225 4.00239 8.15911 4.0024C9.04224 4.00242 9.92536 4.00217 10.8085 4.00172C11.8007 4.00121 12.7929 4.00093 13.7851 4.00096C13.8911 4.00096 13.9971 4.00096 14.1031 4.00096C14.1292 4.00096 14.1553 4.00096 14.1822 4.00097C14.601 4.00097 15.0198 4.00076 15.4386 4.00047C15.8604 4.00019 16.2822 4.00016 16.704 4.00038C16.9541 4.0005 17.2042 4.00044 17.4542 4.00011C17.6418 3.99989 17.8294 4.00002 18.017 4.00028C18.0922 4.00033 18.1675 4.00027 18.2428 4.00008C18.9108 3.99855 19.5754 4.03476 20.2361 4.14651C20.2568 4.14996 20.2775 4.15342 20.2988 4.15697C21.3911 4.3411 22.4576 4.71658 23.4392 5.2681C23.5317 5.31997 23.625 5.36884 23.719 5.41744C24.5085 5.84646 25.2091 6.43046 25.8695 7.05967C25.9133 7.10109 25.9576 7.14189 26.0019 7.1826C26.0242 7.20303 26.0464 7.22347 26.0694 7.24452C26.0971 7.26969 26.0971 7.26969 26.1254 7.29537C26.1626 7.33721 26.1626 7.33721 26.1626 7.40313C26.19 7.41638 26.19 7.41638 26.2178 7.42991C26.2844 7.46902 26.3275 7.50516 26.3758 7.56792C26.3758 7.58967 26.3758 7.61142 26.3758 7.63383C26.394 7.64254 26.4123 7.65125 26.4311 7.66022C26.501 7.70176 26.5363 7.73887 26.587 7.8048C26.6583 7.8962 26.7298 7.98718 26.8029 8.07683C27.4357 8.85435 27.9715 9.73058 28.3863 10.6649C28.4168 10.7337 28.4478 10.8023 28.4788 10.8709C28.5835 11.1046 28.6814 11.3403 28.7681 11.5826C28.7801 11.6154 28.7801 11.6154 28.7924 11.6489C28.8327 11.7654 28.8458 11.8332 28.8119 11.9513C28.3111 11.9675 27.8103 11.9797 27.3094 11.9871C27.0767 11.9907 26.8442 11.9955 26.6116 12.0035C26.4087 12.0104 26.2059 12.0149 26.0029 12.0164C25.8955 12.0173 25.7884 12.0194 25.6811 12.0244C25.0314 12.054 25.0314 12.054 24.8376 11.8841C24.7045 11.7206 24.6136 11.5393 24.5277 11.3434C24.4688 11.219 24.3927 11.1133 24.3108 11.0058C24.2974 10.9877 24.2839 10.9696 24.2701 10.9509C24.1003 10.7239 23.92 10.507 23.7266 10.3034C23.5743 10.1386 23.5743 10.1386 23.5291 10.0874C22.3916 8.81521 20.5656 8.00894 18.9407 7.96148C18.7496 7.95826 18.5585 7.95874 18.3674 7.95886C18.3024 7.95878 18.2374 7.95868 18.1724 7.95858C17.9943 7.95832 17.8163 7.95827 17.6383 7.95824C17.4461 7.95818 17.2538 7.95793 17.0616 7.9577C16.7502 7.95735 16.4388 7.95708 16.1275 7.95688C15.6016 7.95655 15.0758 7.95592 14.55 7.95518C14.3474 7.9549 14.1448 7.95463 13.9422 7.95436C13.9197 7.95432 13.8972 7.95429 13.8741 7.95426C13.3388 7.95354 12.8036 7.95289 12.2683 7.95227C12.2449 7.95224 12.2215 7.95222 12.1974 7.95219C11.6514 7.95156 11.1054 7.951 10.5594 7.9506C10.5242 7.95057 10.5242 7.95057 10.4882 7.95054C10.299 7.9504 10.1097 7.95026 9.92045 7.95013C9.13932 7.94956 8.35818 7.94866 7.57705 7.94739C7.46663 7.94721 7.35622 7.94703 7.2458 7.94686C7.22407 7.94682 7.20234 7.94679 7.17995 7.94675C6.83102 7.94622 6.48208 7.94603 6.13315 7.94599C5.78217 7.94594 5.43121 7.94553 5.08024 7.94478C4.89028 7.94438 4.70033 7.94415 4.51038 7.94434C4.33623 7.94452 4.16209 7.94423 3.98795 7.9436C3.9252 7.94345 3.86246 7.94346 3.79972 7.94366C2.74909 7.94672 1.83296 7.60548 1.07109 6.80989C1.03817 6.77739 1.03817 6.77739 1.00459 6.74424C0.677571 6.41237 0.462178 5.99482 0.279363 5.55751C0.264643 5.52348 0.249923 5.48945 0.234757 5.45438C0.145724 5.22974 0.098238 5.00163 0.0566906 4.76241C0.0514601 4.73253 0.0462297 4.70266 0.0408407 4.67188C0.00727129 4.46227 -0.00924033 4.25421 0.0053047 4.04146C0.0521033 3.99081 0.0946333 4.00436 0.159878 4.00433Z" fill="#4FBF8B"/>
</svg>
