<svg width="22" height="20" viewBox="0 0 22 20" fill="none" xmlns="http://www.w3.org/2000/svg">
<path d="M7.72852 15.375C8.59146 15.375 9.29102 16.0186 9.29102 16.8125C9.29102 17.6064 8.59146 18.25 7.72852 18.25C6.86557 18.25 6.16602 17.6064 6.16602 16.8125C6.16602 16.0186 6.86557 15.375 7.72852 15.375Z" stroke="#364153" stroke-width="1.6"/>
<path d="M16.1035 15.375C16.9664 15.375 17.666 16.0185 17.666 16.8125C17.666 17.6064 16.9664 18.25 16.1035 18.25C15.2406 18.25 14.541 17.6064 14.541 16.8125C14.541 16.0185 15.2406 15.375 16.1035 15.375Z" stroke="#364153" stroke-width="1.6"/>
<path d="M1 1L1.27209 1.08801C2.62792 1.52656 3.30583 1.74583 3.69358 2.26786C4.08133 2.78989 4.08133 3.48329 4.08133 4.87009V7.47833C4.08133 10.2974 4.14721 11.2276 5.04971 12.1034C5.95221 12.9792 7.40476 12.9792 10.3099 12.9792H11.4167M15.8337 12.9792C17.4598 12.9792 18.2728 12.9792 18.8475 12.5483C19.4222 12.1174 19.5864 11.3849 19.9146 9.91969L20.4352 7.59597C20.7968 5.92937 20.9775 5.09608 20.5151 4.54303C20.0527 3.99 18.4727 3.99 16.7175 3.99H10.3995M4.08133 3.99H6.20833" stroke="#364153" stroke-width="1.6" stroke-linecap="round"/>
</svg>
