<svg width="26" height="26" viewBox="0 0 26 26" fill="none" xmlns="http://www.w3.org/2000/svg">
<path d="M22.4926 6.13745C22.4976 6.07819 22.5 6.01875 22.5 5.95947C22.5 4.32761 21.1724 3 19.5405 3C19.507 3 19.4744 3.00131 19.3985 3.00464L6.07538 3.0037C6.03687 3.00185 5.99778 3 5.95725 3C4.32796 3 3.00257 4.325 3.00257 5.9556L3.00666 6.19411H3L3.00852 19.1517L3.00499 19.5956C3.00499 21.2078 4.31648 22.5193 5.92852 22.5193C5.96485 22.5193 6.08113 22.5141 6.08315 22.5141L19.3448 22.516C19.4098 22.5237 19.4802 22.5262 19.5528 22.5262C20.3328 22.5262 21.0667 22.2223 21.6191 21.6702C22.1717 21.1184 22.4759 20.3856 22.4759 19.6058L22.4728 19.3441H22.4928L22.4926 6.13742V6.13745ZM5.99205 21.2478L5.93576 21.2433C5.00965 21.2433 4.27741 20.4841 4.2689 19.5161V8.84914H21.2245L21.2345 19.4157L21.2152 19.4781C21.2036 19.5181 21.1978 19.5561 21.1978 19.5907C21.1978 20.4702 20.5106 21.1972 19.633 21.2459L19.3974 21.2595V21.248L5.99205 21.2478ZM21.2243 7.58062H4.27018L4.26202 6.14468L4.28053 6.081C4.29185 6.04136 4.29756 6.00194 4.29756 5.96672C4.29756 5.04689 5.05386 4.29708 6.00018 4.29394L6.00998 4.29246L19.4729 4.29286L19.5309 4.29728C20.4527 4.29728 21.2027 5.0473 21.2027 5.96916C21.2027 5.99804 21.207 6.02768 21.217 6.06786L21.2242 6.08712V7.58062H21.2243Z" fill="black"/>
<path d="M16.8009 11.8711C16.6292 11.8711 16.4674 11.9381 16.3453 12.0602L11.4794 16.9263L9.15509 14.6022C9.03435 14.4802 8.87306 14.413 8.70119 14.413C8.52931 14.413 8.36748 14.48 8.24563 14.6017C8.12415 14.7218 8.05672 14.8826 8.05615 15.0544C8.05578 15.2267 8.12301 15.3889 8.24541 15.5117L11.0232 18.2897C11.1446 18.4108 11.3066 18.4775 11.4794 18.4775C11.6519 18.4775 11.814 18.4108 11.9353 18.2895L17.2546 12.9702C17.3761 12.8502 17.4435 12.6896 17.4441 12.5176C17.4444 12.3446 17.377 12.182 17.255 12.0605C17.1341 11.9383 16.9728 11.8711 16.8009 11.8711H16.8009Z" fill="black"/>
</svg>
