<svg width="44" height="44" viewBox="0 0 44 44" fill="none" xmlns="http://www.w3.org/2000/svg">
<rect width="44" height="44" rx="4" fill="#4FBF8B"/>
<path d="M17.9006 11.9589C18.079 12.0866 18.079 12.0866 18.1999 12.1964C18.1999 12.2466 18.1999 12.2968 18.1999 12.3484C18.25 12.3484 18.3002 12.3484 18.3519 12.3484C18.3519 12.3986 18.3519 12.4488 18.3519 12.5004C18.402 12.5004 18.4522 12.5004 18.5039 12.5004C18.6351 12.6447 18.6351 12.6447 18.7794 12.8329C18.8274 12.8947 18.8754 12.9564 18.9248 13.02C19.0359 13.1844 19.0359 13.1844 19.0359 13.3364C19.086 13.3364 19.1362 13.3364 19.1879 13.3364C19.2082 13.28 19.2286 13.2236 19.2496 13.1654C19.3363 12.9648 19.423 12.8154 19.5679 12.6524C19.618 12.6524 19.6682 12.6524 19.7199 12.6524C19.7199 12.6023 19.7199 12.5521 19.7199 12.5004C19.77 12.5004 19.8202 12.5004 19.8719 12.5004C19.8719 12.4503 19.8719 12.4001 19.8719 12.3484C19.922 12.3484 19.9722 12.3484 20.0239 12.3484C20.0239 12.2983 20.0239 12.2481 20.0239 12.1964C20.1783 12.0806 20.3311 11.9761 20.4941 11.8734C20.5425 11.843 20.5908 11.8125 20.6407 11.7811C22.0112 10.9336 23.5857 10.4937 25.2019 10.7813C26.6559 11.1354 27.8926 12.2609 28.6879 13.4884C29.1724 14.3152 29.3944 15.1198 29.4479 16.0724C29.5396 16.0707 29.6313 16.0689 29.7257 16.0671C29.8484 16.0657 29.9711 16.0643 30.0939 16.0629C30.154 16.0617 30.2142 16.0604 30.2761 16.0591C30.9424 16.0536 31.4535 16.2143 32.0414 16.5189C32.1185 16.5576 32.1185 16.5576 32.1972 16.597C32.5121 16.7572 32.8121 16.9252 33.0959 17.1364C33.0959 17.1866 33.0959 17.2368 33.0959 17.2884C33.146 17.2884 33.1962 17.2884 33.2479 17.2884C33.2479 17.3386 33.2479 17.3888 33.2479 17.4404C33.2897 17.4566 33.3315 17.4728 33.3746 17.4894C34.319 18.0384 34.7994 19.2842 35.1051 20.2714C35.47 21.783 35.1694 23.3943 34.3788 24.7279C34.1657 25.0685 33.9364 25.3969 33.7039 25.7244C33.6442 25.8103 33.5847 25.8962 33.5251 25.9821C33.2233 26.4102 33.2233 26.4102 33.0959 26.5604C33.0457 26.5604 32.9955 26.5604 32.9439 26.5604C32.9243 26.6032 32.9047 26.6459 32.8845 26.6899C32.7811 26.8847 32.6605 27.0508 32.5259 27.2254C32.4796 27.2862 32.4334 27.3469 32.3857 27.4095C32.3442 27.4554 32.3027 27.5012 32.2599 27.5484C32.2097 27.5484 32.1595 27.5484 32.1079 27.5484C32.0875 27.5927 32.0671 27.637 32.0461 27.6826C31.9547 27.8546 31.8542 27.9897 31.7279 28.1374C31.6887 28.1841 31.6495 28.2307 31.6091 28.2788C31.4999 28.3844 31.4999 28.3844 31.3479 28.3844C31.3277 28.4294 31.3075 28.4744 31.2867 28.5207C31.0197 29.0137 30.3576 29.6519 29.8279 29.8284C29.8279 29.8786 29.8279 29.9288 29.8279 29.9804C29.7777 29.9804 29.7275 29.9804 29.6759 29.9804C29.6759 30.0306 29.6759 30.0808 29.6759 30.1324C29.5316 30.2637 29.5316 30.2637 29.3434 30.4079C29.2816 30.4559 29.2199 30.504 29.1563 30.5534C28.9919 30.6644 28.9919 30.6644 28.8399 30.6644C28.8399 30.7146 28.8399 30.7648 28.8399 30.8164C28.7263 30.916 28.7263 30.916 28.5673 31.0287C28.5095 31.0701 28.4517 31.1114 28.3921 31.1541C28.3298 31.1978 28.2675 31.2416 28.2034 31.2867C28.1402 31.3315 28.0771 31.3764 28.0121 31.4226C27.8872 31.5112 27.7623 31.5996 27.6371 31.6877C27.5081 31.7789 27.3798 31.8712 27.2519 31.9639C26.7142 32.3513 26.1454 32.6891 25.5719 33.0204C25.5215 33.0537 25.4711 33.0869 25.4193 33.1211C25.1273 33.2201 24.8601 33.1548 24.5857 33.0259C24.4199 32.9325 24.2596 32.8333 24.0994 32.7307C24.0104 32.6749 24.0104 32.6749 23.9197 32.618C22.9847 32.0253 22.0929 31.377 21.2289 30.6855C21.0987 30.5817 20.9665 30.4804 20.8305 30.3845C20.79 30.3515 20.7495 30.3185 20.7079 30.2844C20.7079 30.2343 20.7079 30.1841 20.7079 30.1324C20.6655 30.1136 20.6232 30.0948 20.5796 30.0754C20.3716 29.963 20.2004 29.8334 20.0239 29.6764C20.0239 29.6263 20.0239 29.5761 20.0239 29.5244C19.9737 29.5244 19.9235 29.5244 19.8719 29.5244C19.8719 29.4743 19.8719 29.4241 19.8719 29.3724C19.8046 29.343 19.8046 29.343 19.736 29.3129C19.5548 29.2133 19.4479 29.1101 19.309 28.9577C18.5794 28.1802 17.8306 27.5932 16.9202 27.0411C16.7024 26.9077 16.4913 26.7671 16.2809 26.6222C16.224 26.5835 16.1672 26.5448 16.1087 26.5049C16.0714 26.4731 16.0342 26.4412 15.9959 26.4084C15.9959 26.3583 15.9959 26.3081 15.9959 26.2564C15.9431 26.2395 15.8902 26.2225 15.8358 26.2051C15.5642 26.0808 15.3583 25.9054 15.1361 25.7102C15.0712 25.6542 15.0712 25.6542 15.0049 25.5971C14.8787 25.4881 14.7532 25.3784 14.6279 25.2684C14.5331 25.1853 14.5331 25.1853 14.4364 25.1004C14.3374 25.0134 14.2387 24.9261 14.1404 24.8383C14.0069 24.7216 14.0069 24.7216 13.7919 24.5844C13.7919 24.5343 13.7919 24.4841 13.7919 24.4324C13.7417 24.4324 13.6915 24.4324 13.6399 24.4324C13.6399 24.3823 13.6399 24.3321 13.6399 24.2804C13.5987 24.264 13.5576 24.2475 13.5152 24.2306C13.2738 24.0931 13.0921 23.9067 12.8989 23.7104C12.8604 23.6725 12.8219 23.6346 12.7822 23.5956C12.4999 23.3117 12.4999 23.3117 12.4999 23.1404C12.4497 23.1404 12.3995 23.1404 12.3479 23.1404C12.3479 23.0903 12.3479 23.0401 12.3479 22.9884C12.2977 22.9884 12.2475 22.9884 12.1959 22.9884C12.1959 22.9383 12.1959 22.8881 12.1959 22.8364C12.1457 22.8364 12.0955 22.8364 12.0439 22.8364C11.9067 22.6744 11.7773 22.5117 11.6496 22.3424C11.4232 22.0448 11.1943 21.7541 10.9448 21.4753C10.1505 20.5762 9.52409 19.5406 9.07986 18.4284C9.04547 18.3459 9.01109 18.2633 8.97566 18.1782C8.76807 17.5885 8.7477 17.0212 8.74261 16.4002C8.74183 16.3207 8.74104 16.2413 8.74023 16.1594C8.74926 15.3654 8.949 14.679 9.29361 13.9682C9.32007 13.9128 9.34654 13.8575 9.3738 13.8005C9.56696 13.4062 9.77377 13.0575 10.0679 12.7284C10.118 12.7284 10.1682 12.7284 10.2199 12.7284C10.2402 12.683 10.2606 12.6375 10.2816 12.5907C10.3718 12.4246 10.4552 12.317 10.5999 12.1964C10.65 12.1964 10.7002 12.1964 10.7519 12.1964C10.7519 12.1463 10.7519 12.0961 10.7519 12.0444C12.8166 10.1296 15.7077 10.4816 17.9006 11.9589ZM20.0239 13.1844C20.0239 13.2346 20.0239 13.2848 20.0239 13.3364C19.9737 13.3364 19.9235 13.3364 19.8719 13.3364C19.7519 13.5118 19.6396 13.6868 19.5299 13.8684C19.4201 14.05 19.3078 14.225 19.1879 14.4004C19.1377 14.4004 19.0875 14.4004 19.0359 14.4004C18.9266 14.2588 18.9266 14.2588 18.8079 14.0727C18.7687 14.0119 18.7295 13.951 18.6891 13.8883C18.6531 13.8316 18.617 13.7749 18.5799 13.7164C18.5046 13.6036 18.5046 13.6036 18.4279 13.4884C18.3777 13.4884 18.3275 13.4884 18.2759 13.4884C18.2759 13.4383 18.2759 13.3881 18.2759 13.3364C18.2257 13.3364 18.1755 13.3364 18.1239 13.3364C18.0862 13.2236 18.0862 13.2236 18.0479 13.1084C16.8389 12.1998 15.3687 11.8039 13.8679 11.9684C13.2131 12.0982 12.6449 12.4025 12.1199 12.8044C12.0302 12.8659 12.0302 12.8659 11.9388 12.9285C10.9532 13.6422 10.4241 14.6318 10.0679 15.7684C10.0428 15.8437 10.0177 15.9189 9.99186 15.9964C9.77352 18.4667 10.8952 20.3171 12.4239 22.1524C12.715 22.4953 13.0109 22.8339 13.3082 23.1714C13.4037 23.2829 13.4937 23.399 13.5832 23.5154C13.6269 23.5672 13.6707 23.619 13.7159 23.6724C13.766 23.6724 13.8162 23.6724 13.8679 23.6724C13.8883 23.7175 13.9087 23.7626 13.9298 23.8091C14.0201 23.9769 14.1116 24.0878 14.2455 24.2223C14.2889 24.2659 14.3323 24.3095 14.377 24.3544C14.4222 24.3989 14.4673 24.4435 14.5139 24.4894C14.559 24.5352 14.6042 24.5809 14.6507 24.6281C14.6941 24.6713 14.7375 24.7145 14.7822 24.759C14.8417 24.8182 14.8417 24.8182 14.9023 24.8786C15.0048 24.9804 15.0048 24.9804 15.1599 24.9644C15.1599 25.0146 15.1599 25.0648 15.1599 25.1164C15.2901 25.2541 15.2901 25.2541 15.4544 25.3919C15.509 25.4399 15.5637 25.488 15.62 25.5374C15.7573 25.6637 15.7573 25.6637 15.9199 25.6484C15.9199 25.6986 15.9199 25.7488 15.9199 25.8004C16.0516 25.9225 16.1888 26.0389 16.3284 26.1519C16.4042 26.2141 16.48 26.2762 16.5581 26.3402C16.7355 26.4994 16.7355 26.4994 16.9079 26.4844C16.9079 26.5346 16.9079 26.5848 16.9079 26.6364C17.0568 26.7608 17.0568 26.7608 17.2119 26.8644C17.262 26.8394 17.3122 26.8143 17.3639 26.7884C17.3169 26.7295 17.27 26.6705 17.2217 26.6097C15.8076 24.8143 14.8903 23.0517 15.0839 20.7084C15.2258 19.5648 15.8553 18.5925 16.6039 17.7444C16.6431 17.698 16.6824 17.6516 16.7229 17.6037C17.393 16.8681 18.4266 16.2595 19.4159 16.1484C21.0645 16.0741 22.735 16.3743 24.0444 17.4461C24.4436 17.8125 24.7795 18.2332 25.1159 18.6564C25.1564 18.604 25.197 18.5516 25.2388 18.4976C26.2593 17.2105 27.355 16.5751 28.9159 16.1484C28.7432 14.7186 28.1641 13.5397 27.0809 12.5848C26.9365 12.472 26.7907 12.3702 26.6359 12.2724C26.5715 12.2309 26.5715 12.2309 26.5058 12.1884C24.6263 11.1173 21.4503 11.4965 20.0239 13.1844Z" fill="white"/>
<path d="M13.8676 23.8242C14.2241 24.1213 14.5555 24.4307 14.8785 24.7638C15.0013 24.8945 15.0013 24.8945 15.1596 24.9642C15.1596 25.0144 15.1596 25.0645 15.1596 25.1162C15.2004 25.1335 15.2412 25.1507 15.2831 25.1685C15.5263 25.3029 15.7137 25.461 15.9196 25.6482C15.9196 25.6984 15.9196 25.7485 15.9196 25.8002C15.9624 25.8198 16.0051 25.8394 16.0491 25.8596C16.2439 25.963 16.41 26.0835 16.5846 26.2182C16.6454 26.2645 16.7061 26.3107 16.7687 26.3583C16.8146 26.3999 16.8604 26.4414 16.9076 26.4842C16.9076 26.5344 16.9076 26.5845 16.9076 26.6362C17.2049 26.748 17.2049 26.748 17.5156 26.7882C17.5921 26.9146 17.6681 27.0413 17.7436 27.1682C17.8189 27.2184 17.8941 27.2685 17.9716 27.3202C18.0239 27.5197 18.0239 27.5197 18.0476 27.7002C17.5672 27.5278 17.1738 27.2271 16.7556 26.9402C16.6803 26.8898 16.605 26.8393 16.5274 26.7873C16.4585 26.7406 16.3896 26.6939 16.3186 26.6457C16.2563 26.6036 16.194 26.5615 16.1298 26.5181C16.0634 26.4637 16.0634 26.4637 15.9956 26.4082C15.9956 26.3581 15.9956 26.3079 15.9956 26.2562C15.9164 26.2308 15.9164 26.2308 15.8356 26.2049C15.564 26.0806 15.3581 25.9052 15.1359 25.71C15.0926 25.6726 15.0493 25.6353 15.0047 25.5969C14.8785 25.4879 14.753 25.3782 14.6276 25.2682C14.5645 25.2128 14.5013 25.1573 14.4362 25.1002C14.3372 25.0132 14.2385 24.9258 14.1402 24.838C14.0066 24.7213 14.0066 24.7213 13.7916 24.5842C13.7916 24.5341 13.7916 24.4839 13.7916 24.4322C13.7415 24.4322 13.6913 24.4322 13.6396 24.4322C13.6749 24.3664 13.6749 24.3664 13.7109 24.2992C13.7862 24.1397 13.8278 23.9952 13.8676 23.8242Z" fill="white"/>
<path d="M16.3764 26.2559C16.6076 26.2775 16.7101 26.3516 16.9084 26.4839C16.9084 26.534 16.9084 26.5842 16.9084 26.6359C17.2056 26.7476 17.2056 26.7476 17.5164 26.7879C17.5929 26.9142 17.6689 27.0409 17.7444 27.1679C17.8197 27.218 17.8949 27.2682 17.9724 27.3199C18.0247 27.5194 18.0247 27.5194 18.0484 27.6999C17.3461 27.4482 16.7335 26.9382 16.1484 26.4839C16.2529 26.369 16.2529 26.369 16.3764 26.2559Z" fill="white"/>
<path d="M17.1364 26.7883C17.3121 26.7646 17.3121 26.7646 17.5164 26.7883C17.6399 26.9688 17.6399 26.9688 17.7444 27.1683C17.8196 27.2185 17.8949 27.2686 17.9724 27.3203C18.0246 27.5198 18.0246 27.5198 18.0484 27.7003C17.773 27.5996 17.5441 27.4766 17.3026 27.3108C17.2426 27.2699 17.1825 27.2289 17.1206 27.1867C17.0757 27.1556 17.0307 27.1244 16.9844 27.0923C17.0345 27.0422 17.0847 26.992 17.1364 26.9403C17.1364 26.8902 17.1364 26.84 17.1364 26.7883Z" fill="white"/>
<path d="M10.7524 12.0439C10.8025 12.0439 10.8527 12.0439 10.9044 12.0439C10.7943 12.3057 10.6553 12.4514 10.4389 12.6329C10.3563 12.7029 10.3563 12.7029 10.272 12.7743C10.2299 12.8091 10.1878 12.844 10.1444 12.8799C10.1193 12.8298 10.0942 12.7796 10.0684 12.7279C10.1185 12.7279 10.1687 12.7279 10.2204 12.7279C10.2407 12.6825 10.2611 12.637 10.2821 12.5902C10.3723 12.4241 10.4557 12.3165 10.6004 12.1959C10.6505 12.1959 10.7007 12.1959 10.7524 12.1959C10.7524 12.1458 10.7524 12.0956 10.7524 12.0439Z" fill="white"/>
<path d="M17.4404 27.168C17.616 27.2181 17.7915 27.2683 17.9724 27.32C17.9975 27.4454 18.0226 27.5708 18.0484 27.7C17.7898 27.6231 17.6869 27.5747 17.5307 27.3485C17.5009 27.2889 17.4711 27.2293 17.4404 27.168Z" fill="white"/>
</svg>
