<svg width="30" height="24" viewBox="0 0 30 24" fill="none" xmlns="http://www.w3.org/2000/svg">
<path d="M3.50614 7.75016C3.53267 7.75017 3.55921 7.75019 3.58655 7.7502C3.63231 7.7501 3.63231 7.7501 3.67898 7.75C3.72986 7.75014 3.72986 7.75014 3.78176 7.75029C3.81747 7.75026 3.85319 7.75023 3.88998 7.75021C3.98956 7.75016 4.08913 7.75026 4.18871 7.75043C4.29592 7.75057 4.40313 7.75052 4.51034 7.7505C4.69624 7.75048 4.88214 7.75058 5.06804 7.75077C5.33682 7.75104 5.6056 7.75112 5.87439 7.75116C6.31042 7.75124 6.74646 7.75146 7.18249 7.75177C7.60617 7.75207 8.02985 7.7523 8.45352 7.75244C8.47962 7.75245 8.50572 7.75246 8.5326 7.75247C8.66352 7.75251 8.79443 7.75255 8.92534 7.7526C10.0121 7.75294 11.0989 7.75352 12.1857 7.75425C12.1857 7.9119 12.1333 8.00246 12.0639 8.13533C11.7206 8.81667 11.4692 9.56258 11.3331 10.3249C11.3276 10.3543 11.322 10.3837 11.3163 10.414C11.1344 11.4075 11.1463 12.4647 11.3331 13.4559C11.3378 13.4823 11.3425 13.5087 11.3474 13.536C11.5689 14.7599 12.1029 15.9181 12.8252 16.8835C12.8379 16.9006 12.8506 16.9178 12.8637 16.9354C13.1847 17.3668 13.5438 17.7676 13.9519 18.1029C13.977 18.1238 13.977 18.1238 14.0027 18.1451C14.4365 18.5033 14.8888 18.8083 15.3831 19.0587C15.4048 19.0698 15.4266 19.081 15.449 19.0924C16.4133 19.5829 17.4478 19.8239 18.5119 19.825C18.5354 19.825 18.5588 19.825 18.583 19.8251C18.9841 19.8247 19.3728 19.7956 19.768 19.7178C19.7924 19.7133 19.8168 19.7087 19.842 19.7039C20.8172 19.5171 21.7836 19.1097 22.5999 18.4984C22.6493 18.4621 22.6493 18.4621 22.6996 18.425C22.9658 18.2262 23.2112 18.0061 23.4526 17.7733C23.4693 17.7573 23.4861 17.7413 23.5033 17.7247C23.6923 17.5432 23.8692 17.3576 24.0311 17.1472C24.055 17.1184 24.0789 17.0896 24.1035 17.06C24.4 16.6994 24.6558 16.2949 24.8717 15.8726C24.8854 15.8459 24.8991 15.8192 24.9132 15.7917C24.9236 15.7713 24.9339 15.751 24.9447 15.73C24.9213 15.73 24.898 15.73 24.8739 15.7301C24.3064 15.7308 23.739 15.7313 23.1715 15.7317C22.8971 15.7319 22.6227 15.7321 22.3483 15.7325C22.1092 15.7328 21.8701 15.733 21.631 15.7331C21.5043 15.7331 21.3776 15.7332 21.251 15.7335C21.1319 15.7337 21.0128 15.7338 20.8937 15.7337C20.8498 15.7337 20.806 15.7338 20.7622 15.7339C20.7026 15.7341 20.643 15.734 20.5834 15.7339C20.55 15.734 20.5165 15.734 20.4821 15.734C20.4075 15.73 20.4075 15.73 20.377 15.697C20.374 15.6471 20.3732 15.597 20.3732 15.5469C20.3731 15.5144 20.373 15.482 20.3729 15.4486C20.373 15.4127 20.373 15.3768 20.3731 15.3398C20.373 15.3023 20.373 15.2647 20.3729 15.226C20.3728 15.1012 20.3729 14.9763 20.373 14.8515C20.373 14.7651 20.3729 14.6788 20.3729 14.5925C20.3728 14.4113 20.3729 14.2301 20.3731 14.0489C20.3732 13.8391 20.3732 13.6293 20.373 13.4196C20.3728 13.2181 20.3729 13.0167 20.373 12.8153C20.373 12.7294 20.3729 12.6435 20.3729 12.5576C20.3728 12.4378 20.3729 12.318 20.3731 12.1982C20.373 12.1623 20.373 12.1264 20.3729 12.0894C20.373 12.057 20.3731 12.0245 20.3732 11.9911C20.3732 11.9628 20.3732 11.9344 20.3732 11.9052C20.377 11.841 20.377 11.841 20.4075 11.808C20.4557 11.8048 20.5041 11.8039 20.5524 11.8039C20.5839 11.8038 20.6155 11.8037 20.648 11.8036C20.6831 11.8037 20.7181 11.8038 20.7543 11.8038C20.7912 11.8038 20.8281 11.8037 20.8662 11.8037C20.9692 11.8036 21.0722 11.8036 21.1752 11.8037C21.2861 11.8038 21.3969 11.8037 21.5078 11.8036C21.7252 11.8034 21.9426 11.8035 22.1601 11.8036C22.3367 11.8036 22.5133 11.8037 22.6899 11.8036C22.715 11.8036 22.7401 11.8036 22.7659 11.8036C22.8169 11.8036 22.8678 11.8036 22.9188 11.8036C23.3972 11.8035 23.8756 11.8036 24.354 11.8038C24.7649 11.8039 25.1758 11.8039 25.5868 11.8037C26.0634 11.8036 26.54 11.8035 27.0167 11.8036C27.0674 11.8036 27.1182 11.8036 27.169 11.8036C27.2065 11.8036 27.2065 11.8036 27.2447 11.8036C27.4212 11.8037 27.5977 11.8036 27.7742 11.8035C27.9892 11.8034 28.2041 11.8035 28.4191 11.8036C28.5288 11.8037 28.6386 11.8038 28.7484 11.8037C28.8671 11.8035 28.9859 11.8037 29.1046 11.8038C29.1397 11.8038 29.1748 11.8037 29.2109 11.8036C29.2424 11.8037 29.274 11.8038 29.3065 11.8039C29.3339 11.8039 29.3614 11.8039 29.3897 11.8039C29.4514 11.808 29.4514 11.808 29.4818 11.841C29.4908 11.989 29.4893 12.1376 29.4895 12.2859C29.4895 12.3194 29.4895 12.3194 29.4895 12.3535C29.4889 12.7924 29.4544 13.2202 29.3905 13.6537C29.3827 13.7072 29.3827 13.7072 29.3747 13.7619C29.1161 15.4815 28.5281 17.1712 27.5939 18.5973C27.5734 18.6287 27.5529 18.6602 27.5318 18.6926C27.4722 18.7825 27.4116 18.8713 27.3503 18.9598C27.3272 18.9933 27.3041 19.0267 27.2803 19.0611C26.7455 19.8288 26.1307 20.54 25.4319 21.135C25.3915 21.1702 25.3511 21.2054 25.3108 21.2406C23.7906 22.5556 21.9358 23.38 20.0135 23.6686C19.9908 23.672 19.9681 23.6755 19.9447 23.679C19.4817 23.7475 19.0213 23.7786 18.5538 23.7778C18.5321 23.7778 18.5104 23.7778 18.488 23.7777C18.0801 23.7767 17.6765 23.7561 17.271 23.7057C17.2393 23.7018 17.2076 23.6979 17.1749 23.6939C16.2027 23.5687 15.2492 23.2945 14.3477 22.8818C14.3283 22.8729 14.3089 22.8641 14.289 22.855C13.9773 22.7127 13.6731 22.5569 13.3733 22.3874C13.3525 22.3757 13.3318 22.3641 13.3104 22.3521C13.0108 22.1826 12.7262 21.9924 12.4446 21.79C12.4144 21.7684 12.3842 21.7468 12.3531 21.7245C12.1816 21.5995 12.0176 21.4682 11.8575 21.3265C11.7903 21.2673 11.7219 21.2102 11.6528 21.1536C11.5271 21.0482 11.4093 20.9351 11.2921 20.8188C11.2282 20.7562 11.1636 20.6951 11.0983 20.6343C10.9514 20.4956 10.814 20.3473 10.6765 20.1978C10.6518 20.1712 10.6271 20.1446 10.6016 20.1171C10.4534 19.9565 10.3114 19.7923 10.176 19.619C10.1602 19.5989 10.1445 19.5788 10.1283 19.558C9.74095 19.0584 9.40355 18.5281 9.08788 17.973C9.05579 17.9166 9.02332 17.8605 8.99076 17.8044C8.66037 17.2178 8.41862 16.5693 8.19666 15.9277C8.18036 15.8808 8.18036 15.8808 8.16373 15.833C7.75741 14.6447 7.54656 13.3414 7.55529 12.0758C7.55542 12.037 7.55556 11.9982 7.5557 11.9583C7.55606 11.8642 7.55655 11.7702 7.55719 11.6762C7.51908 11.6772 7.51908 11.6772 7.4802 11.6783C6.30734 11.7059 5.34424 11.4504 4.46238 10.5676C3.8385 9.8935 3.4198 8.93544 3.41016 7.97672C3.41137 7.75665 3.41137 7.75665 3.50614 7.75016Z" fill="#4FBF8B"/>
<path d="M0.159878 0.00433212C0.18685 0.00424117 0.213821 0.00415021 0.24161 0.0040565C0.286658 0.00415811 0.286658 0.00415811 0.332616 0.00426177C0.364341 0.00420399 0.396066 0.00414622 0.428752 0.00408669C0.536498 0.00393173 0.644242 0.00401472 0.751987 0.0040944C0.829449 0.0040329 0.906911 0.00395711 0.984373 0.00386813C1.15355 0.00370784 1.32272 0.00365165 1.4919 0.00368542C1.7435 0.00373552 1.99511 0.00359886 2.24671 0.00342589C2.72236 0.00310641 3.19802 0.00301442 3.67367 0.00299556C4.04131 0.00298043 4.40895 0.00291266 4.77658 0.00280769C4.88233 0.0027781 4.98809 0.00274878 5.09384 0.00271953C5.12013 0.00271224 5.14642 0.00270496 5.17351 0.00269745C5.91364 0.00249446 6.65378 0.00236458 7.39392 0.00237919C7.42185 0.0023797 7.44978 0.00238022 7.47856 0.00238075C7.62015 0.00238349 7.76173 0.00238675 7.90331 0.00239013C7.93143 0.00239079 7.95955 0.00239144 7.98852 0.00239212C8.04538 0.00239345 8.10225 0.00239483 8.15911 0.00239625C9.04224 0.00241641 9.92536 0.00216979 10.8085 0.00171823C11.8007 0.00121112 12.7929 0.000928423 13.7851 0.000958997C13.8911 0.000961456 13.9971 0.000963062 14.1031 0.000964083C14.1292 0.000964467 14.1553 0.000964851 14.1822 0.000965247C14.601 0.000966258 15.0198 0.000756356 15.4386 0.000471952C15.8604 0.000191469 16.2822 0.000160825 16.704 0.000376683C16.9541 0.000497791 17.2042 0.00044017 17.4542 0.000114922C17.6418 -0.000108237 17.8294 1.9694e-05 18.017 0.000275532C18.0922 0.00032577 18.1675 0.000267615 18.2428 8.23985e-05C18.9108 -0.00145071 19.5754 0.0347586 20.2361 0.146511C20.2568 0.149964 20.2775 0.153417 20.2988 0.156974C21.3911 0.341101 22.4576 0.716585 23.4392 1.2681C23.5317 1.31997 23.625 1.36884 23.719 1.41744C24.5085 1.84646 25.2091 2.43046 25.8695 3.05967C25.9133 3.10109 25.9576 3.14189 26.0019 3.1826C26.0242 3.20303 26.0464 3.22347 26.0694 3.24452C26.0971 3.26969 26.0971 3.26969 26.1254 3.29537C26.1626 3.33721 26.1626 3.33721 26.1626 3.40313C26.19 3.41638 26.19 3.41638 26.2178 3.42991C26.2844 3.46902 26.3275 3.50516 26.3758 3.56792C26.3758 3.58967 26.3758 3.61142 26.3758 3.63383C26.394 3.64254 26.4123 3.65125 26.4311 3.66022C26.501 3.70176 26.5363 3.73887 26.587 3.8048C26.6583 3.8962 26.7298 3.98718 26.8029 4.07683C27.4357 4.85435 27.9715 5.73058 28.3863 6.6649C28.4168 6.73371 28.4478 6.80229 28.4788 6.87088C28.5834 7.10462 28.6814 7.34029 28.7681 7.58256C28.7801 7.61538 28.7801 7.61538 28.7924 7.64886C28.8327 7.76538 28.8458 7.83315 28.8119 7.95127C28.3111 7.96749 27.8103 7.97967 27.3094 7.98713C27.0767 7.99069 26.8442 7.99553 26.6116 8.00348C26.4087 8.01042 26.2059 8.01485 26.0029 8.01639C25.8955 8.01729 25.7884 8.01936 25.6811 8.02445C25.0314 8.05403 25.0314 8.05403 24.8376 7.88412C24.7045 7.72064 24.6136 7.53933 24.5277 7.34344C24.4688 7.21896 24.3927 7.11334 24.3108 7.0058C24.2974 6.98768 24.2839 6.96956 24.2701 6.95088C24.1003 6.72393 23.92 6.50698 23.7266 6.30339C23.5743 6.1386 23.5743 6.1386 23.5291 6.08737C22.3916 4.81521 20.5656 4.00894 18.9407 3.96148C18.7496 3.95826 18.5585 3.95874 18.3674 3.95886C18.3024 3.95878 18.2374 3.95868 18.1724 3.95858C17.9943 3.95832 17.8163 3.95827 17.6383 3.95824C17.4461 3.95818 17.2538 3.95793 17.0616 3.9577C16.7502 3.95735 16.4388 3.95708 16.1275 3.95688C15.6016 3.95655 15.0758 3.95592 14.55 3.95518C14.3474 3.9549 14.1448 3.95463 13.9422 3.95436C13.9197 3.95432 13.8972 3.95429 13.8741 3.95426C13.3388 3.95354 12.8036 3.95289 12.2683 3.95227C12.2449 3.95224 12.2215 3.95222 12.1974 3.95219C11.6514 3.95156 11.1054 3.951 10.5594 3.9506C10.5242 3.95057 10.5242 3.95057 10.4882 3.95054C10.299 3.9504 10.1097 3.95026 9.92045 3.95013C9.13932 3.94956 8.35818 3.94866 7.57705 3.94739C7.46663 3.94721 7.35622 3.94703 7.2458 3.94686C7.22407 3.94682 7.20234 3.94679 7.17995 3.94675C6.83102 3.94622 6.48208 3.94603 6.13315 3.94599C5.78217 3.94594 5.43121 3.94553 5.08024 3.94478C4.89028 3.94438 4.70033 3.94415 4.51038 3.94434C4.33623 3.94452 4.16209 3.94423 3.98795 3.9436C3.9252 3.94345 3.86246 3.94346 3.79972 3.94366C2.74909 3.94672 1.83296 3.60548 1.07109 2.80989C1.03817 2.77739 1.03817 2.77739 1.00459 2.74424C0.677571 2.41237 0.462178 1.99482 0.279363 1.55751C0.264643 1.52348 0.249923 1.48945 0.234757 1.45438C0.145724 1.22974 0.098238 1.00163 0.0566906 0.762405C0.0514601 0.732533 0.0462297 0.702661 0.0408407 0.671884C0.00727129 0.46227 -0.00924033 0.254213 0.0053047 0.0414588C0.0521033 -0.00919216 0.0946333 0.00435889 0.159878 0.00433212Z" fill="#4FBF8B"/>
</svg>
